<?xml version="1.0" encoding="UTF-8"?>
<svg xmlns="http://www.w3.org/2000/svg" xmlns:xlink="http://www.w3.org/1999/xlink" width="2401" height="2401" viewBox="0 0 2401 2401">
<path fill-rule="nonzero" fill="rgb(0%, 0%, 0%)" fill-opacity="1" d="M 1598.871094 1548.449219 C 1610.96875 1607.339844 1623.550781 1667.65625 1636.128906 1727.972656 L 1647.859375 1784.210938 C 1661.179688 1848.078125 1674.5 1911.957031 1687.890625 1977.257812 C 1688.019531 1977.894531 1688.101562 1978.519531 1688.199219 1979.164062 C 1688.21875 1979.34375 1688.230469 1979.523438 1688.230469 1979.699219 L 1688.238281 1980.519531 C 1688.238281 1984.949219 1686.441406 1988.972656 1683.519531 1991.894531 L 1683.5 1991.917969 C 1680.578125 1994.828125 1676.558594 1996.632812 1672.128906 1996.632812 L 1031.210938 1996.632812 L 1031.210938 1996.613281 C 1026.769531 1996.605469 1022.75 1994.796875 1019.851562 1991.882812 C 1016.941406 1988.96875 1015.140625 1984.949219 1015.140625 1980.523438 L 1015.140625 1980.492188 L 1015.148438 1980.492188 L 1015.261719 1947.375 C 1015.441406 1898.480469 1015.609375 1849.476562 1014.75 1800.640625 L 1014.71875 1798.949219 C 1014.480469 1785.632812 1014.238281 1771.886719 1012.96875 1758.710938 C 1012.738281 1756.320312 1012.46875 1753.769531 1012.03125 1751.183594 C 1011.609375 1748.761719 1011.058594 1746.394531 1010.28125 1744.296875 L 1010.078125 1743.730469 L 1010.121094 1743.730469 L 1010.078125 1743.726562 L 1010.070312 1743.710938 C 1007.96875 1742.933594 1004.53125 1742.507812 1000.980469 1742.277344 C 996.839844 1742.007812 992.769531 1742.015625 990.15625 1742.027344 C 984.777344 1742.058594 979.269531 1742.246094 973.710938 1742.519531 C 968.394531 1742.777344 962.808594 1743.140625 957.195312 1743.523438 C 950.503906 1743.980469 943.605469 1744.511719 936.574219 1745.089844 C 928.4375 1745.757812 921.839844 1746.332031 915.949219 1746.859375 C 903.195312 1748.011719 889.703125 1749.304688 876.21875 1750.601562 L 868.488281 1751.347656 C 853.304688 1752.8125 838.097656 1754.28125 823.238281 1755.324219 C 816.589844 1755.796875 809.824219 1756.1875 802.878906 1756.414062 C 796.058594 1756.640625 789.222656 1756.695312 782.398438 1756.484375 C 776.617188 1756.304688 770.839844 1755.9375 765.113281 1755.359375 C 759.644531 1754.808594 754.167969 1754.054688 748.722656 1753.078125 C 743.898438 1752.210938 739.03125 1751.171875 734.335938 1749.898438 C 729.488281 1748.585938 724.714844 1747.015625 720.195312 1745.117188 C 716.203125 1743.445312 712.398438 1741.488281 708.910156 1739.023438 C 705.347656 1736.507812 702.144531 1733.480469 699.464844 1729.707031 C 696.671875 1725.773438 694.785156 1721.519531 693.523438 1717.09375 C 692.296875 1712.785156 691.652344 1708.308594 691.328125 1703.804688 C 690.84375 1697.117188 690.9375 1690.070312 691.3125 1683.027344 C 691.679688 1676.136719 692.328125 1669.175781 692.953125 1662.566406 C 693.472656 1657.09375 693.988281 1652.128906 694.503906 1647.164062 L 695.214844 1640.292969 C 695.648438 1636.085938 696.078125 1631.800781 696.441406 1627.1875 C 696.789062 1622.734375 697.046875 1618.371094 697.128906 1614.179688 C 697.214844 1609.96875 697.113281 1605.746094 696.84375 1601.480469 C 696.578125 1597.28125 696.136719 1593.074219 695.53125 1588.828125 C 694.808594 1583.746094 693.894531 1578.691406 692.859375 1573.691406 C 691.839844 1568.773438 690.644531 1563.726562 689.351562 1558.644531 C 688.085938 1553.664062 686.730469 1548.675781 685.261719 1543.804688 C 683.777344 1538.875 682.164062 1534.011719 680.394531 1529.328125 C 679.480469 1526.894531 678.464844 1524.363281 677.320312 1521.898438 C 676.207031 1519.492188 674.980469 1517.164062 673.621094 1515.085938 C 672.996094 1514.121094 672.339844 1513.238281 671.621094 1512.390625 C 670.902344 1511.542969 670.144531 1510.761719 669.3125 1510.007812 C 668.355469 1509.144531 667.351562 1508.339844 666.316406 1507.5625 C 665.300781 1506.804688 664.175781 1506.015625 663.003906 1505.210938 L 661.238281 1503.984375 L 659.417969 1502.679688 C 658.210938 1501.785156 657.039062 1500.871094 655.933594 1499.9375 C 654.816406 1498.992188 653.710938 1497.992188 652.625 1496.925781 C 651.375 1495.699219 650.191406 1494.425781 649.085938 1493.117188 C 647.992188 1491.820312 646.945312 1490.453125 645.945312 1489.011719 C 644.777344 1487.324219 643.707031 1485.578125 642.753906 1483.808594 C 641.820312 1482.078125 640.96875 1480.246094 640.203125 1478.332031 C 639.4375 1476.394531 638.785156 1474.425781 638.289062 1472.449219 C 637.816406 1470.5625 637.472656 1468.601562 637.28125 1466.589844 C 637.039062 1464.027344 637.058594 1461.484375 637.363281 1459.019531 C 637.667969 1456.566406 638.246094 1454.144531 639.117188 1451.789062 C 639.988281 1449.4375 641.128906 1447.214844 642.503906 1445.144531 C 643.898438 1443.042969 645.535156 1441.097656 647.375 1439.328125 C 649.078125 1437.691406 650.945312 1436.210938 652.898438 1434.863281 C 654.675781 1433.640625 656.492188 1432.546875 658.300781 1431.546875 L 652.925781 1427.613281 C 650.53125 1425.863281 648.144531 1424.113281 646.527344 1422.90625 C 644.140625 1421.125 642.199219 1419.675781 640.324219 1417.871094 C 638.421875 1416.039062 636.765625 1413.976562 635.101562 1411.09375 L 634.488281 1410.03125 C 632.921875 1407.3125 631.457031 1404.625 630.253906 1401.902344 C 628.984375 1399.039062 627.941406 1396.058594 627.257812 1392.828125 C 626.824219 1390.789062 626.558594 1388.71875 626.4375 1386.640625 L 626.433594 1386.550781 C 626.3125 1384.390625 626.339844 1382.238281 626.503906 1380.128906 C 626.632812 1378.398438 626.851562 1376.679688 627.144531 1374.960938 C 627.433594 1373.269531 627.796875 1371.589844 628.214844 1369.941406 L 628.21875 1369.921875 C 628.644531 1368.230469 629.167969 1366.550781 629.8125 1364.828125 L 629.820312 1364.808594 C 630.425781 1363.179688 631.15625 1361.550781 632.027344 1359.878906 C 633.097656 1357.839844 634.273438 1355.910156 635.5 1354.070312 C 636.699219 1352.269531 638 1350.46875 639.304688 1348.710938 C 640.941406 1346.5 642.421875 1344.558594 643.898438 1342.628906 L 646.367188 1339.421875 C 650.027344 1334.671875 654.015625 1329.511719 657.074219 1324.519531 L 656.433594 1324.460938 C 648.300781 1323.648438 640.152344 1322.75 632.015625 1321.679688 C 623.90625 1320.621094 615.785156 1319.390625 607.671875 1317.921875 C 601.875 1316.871094 596.121094 1315.71875 590.652344 1314.429688 C 585.027344 1313.089844 579.386719 1311.53125 573.816406 1309.648438 C 565.199219 1306.738281 555.992188 1303.03125 547.828125 1297.839844 L 547.820312 1297.851562 C 539.417969 1292.511719 532.160156 1285.609375 527.78125 1276.429688 C 523.40625 1267.261719 522.710938 1257.589844 524.070312 1248.058594 C 525.390625 1238.808594 528.65625 1229.75 532.328125 1221.460938 C 536.109375 1212.941406 540.375 1204.480469 544.886719 1196.148438 C 549.339844 1187.929688 554.09375 1179.761719 558.878906 1171.730469 C 564.605469 1162.128906 570.554688 1152.539062 576.664062 1142.988281 C 582.804688 1133.390625 588.996094 1123.988281 595.203125 1114.75 L 600.761719 1106.53125 C 609.140625 1094.199219 617.554688 1082.109375 625.984375 1070.269531 C 634.710938 1058.03125 643.433594 1046.070312 652.140625 1034.390625 C 658.398438 1026 664.761719 1017.519531 671.234375 1009.179688 C 677.664062 1000.910156 684.28125 992.679688 691.164062 984.660156 L 691.144531 984.640625 C 689.597656 982.570312 688.179688 980.609375 686.832031 978.71875 C 685.476562 976.808594 684.027344 974.730469 682.5625 972.609375 C 680.660156 969.859375 678.976562 967.410156 677.71875 965.550781 C 676.289062 963.441406 674.730469 961.089844 672.976562 958.390625 C 670.960938 955.289062 669.519531 952.578125 668.570312 949.609375 C 667.617188 946.601562 667.210938 943.46875 667.277344 939.550781 C 667.3125 937.488281 667.464844 935.46875 667.671875 933.511719 C 667.882812 931.53125 668.148438 929.609375 668.414062 927.71875 C 669.136719 922.628906 669.980469 917.46875 670.824219 912.308594 L 671.238281 909.78125 C 676.089844 880.019531 681.214844 849.898438 687.304688 819.800781 C 693.390625 789.738281 700.402344 759.898438 708.996094 730.859375 C 716.195312 706.550781 724.644531 682.589844 734.992188 659.5 C 745.363281 636.351562 757.640625 614.101562 772.476562 593.261719 C 787.476562 572.191406 804.414062 553.539062 823.199219 536.941406 C 841.953125 520.359375 862.550781 505.820312 884.894531 492.949219 C 912.5625 477.019531 942.21875 463.941406 972.671875 453 C 1003.078125 442.058594 1034.269531 433.238281 1065.039062 425.808594 C 1082.808594 421.511719 1100.710938 417.890625 1118.671875 414.898438 C 1137.078125 411.828125 1155.660156 409.410156 1174.339844 407.601562 C 1193.25 405.769531 1212.238281 404.570312 1231.261719 403.988281 C 1250.390625 403.410156 1269.539062 403.460938 1288.648438 404.121094 C 1351.070312 406.289062 1412.339844 416.238281 1470.730469 434.921875 C 1526.269531 452.691406 1579.199219 478.351562 1628.050781 512.71875 C 1669.148438 541.648438 1705.738281 575.660156 1737.378906 613.789062 C 1769.480469 652.46875 1796.488281 695.398438 1817.941406 741.550781 C 1839.078125 787.03125 1854.488281 834.988281 1864.230469 884.089844 C 1874.148438 934.070312 1878.191406 985.261719 1876.410156 1036.261719 C 1874.058594 1104.011719 1861.621094 1170.460938 1840.078125 1233.820312 C 1818.269531 1298 1787.121094 1359.050781 1747.679688 1415.097656 C 1739.609375 1426.574219 1731.160156 1437.90625 1722.300781 1448.945312 C 1713.441406 1459.976562 1704.179688 1470.683594 1694.460938 1480.894531 C 1687.609375 1488.109375 1680.488281 1495.117188 1673.109375 1501.777344 C 1665.699219 1508.457031 1657.988281 1514.832031 1649.941406 1520.761719 C 1644.441406 1524.808594 1638.769531 1528.652344 1632.839844 1532.238281 C 1626.910156 1535.832031 1620.851562 1539.105469 1614.609375 1541.996094 C 1611.570312 1543.402344 1608.410156 1544.746094 1605.160156 1546.039062 C 1603 1546.898438 1600.910156 1547.695312 1598.871094 1548.449219 Z M 1010.121094 1743.742188 L 1010.101562 1743.738281 Z M 1173.960938 1106.570312 C 1180.359375 1110.558594 1186.859375 1114.390625 1193.378906 1117.800781 C 1201.371094 1121.980469 1209.589844 1125.628906 1218.019531 1128.300781 C 1222.929688 1129.851562 1227.949219 1131.070312 1233.03125 1131.96875 C 1238.191406 1132.871094 1243.371094 1133.441406 1248.488281 1133.671875 C 1253.511719 1133.878906 1258.601562 1133.789062 1263.621094 1133.328125 C 1268.339844 1132.898438 1273.050781 1132.140625 1277.660156 1131.011719 C 1281.589844 1130.039062 1285.441406 1128.789062 1289.160156 1127.230469 C 1292.75 1125.730469 1296.21875 1123.949219 1299.519531 1121.878906 C 1300.351562 1121.351562 1301.261719 1120.75 1302.25 1120.070312 C 1303.21875 1119.390625 1304.109375 1118.75 1304.878906 1118.148438 L 1304.898438 1118.128906 C 1307.121094 1116.421875 1309.238281 1114.570312 1311.261719 1112.609375 C 1313.238281 1110.671875 1315.148438 1108.578125 1316.980469 1106.339844 C 1319.621094 1103.121094 1322 1099.710938 1324.179688 1096.191406 C 1326.390625 1092.640625 1328.429688 1088.929688 1330.351562 1085.160156 C 1332.089844 1081.761719 1333.640625 1078.511719 1335.078125 1075.371094 C 1336.351562 1072.609375 1337.550781 1069.898438 1338.71875 1067.21875 C 1333.710938 1059.011719 1329.980469 1050.210938 1326.921875 1041.171875 C 1323.671875 1031.519531 1321.210938 1021.738281 1318.800781 1012.089844 L 1318.761719 1011.910156 C 1317.761719 1007.710938 1318.550781 1003.46875 1320.621094 1000.019531 C 1322.71875 996.53125 1326.140625 993.839844 1330.390625 992.78125 L 1330.570312 992.738281 C 1334.769531 991.738281 1339 992.53125 1342.449219 994.601562 C 1345.941406 996.699219 1348.628906 1000.128906 1349.691406 1004.371094 L 1350.289062 1006.800781 C 1354.449219 1023.488281 1359.171875 1042.46875 1369.390625 1055.820312 L 1369.429688 1055.871094 C 1371.859375 1059.039062 1374.578125 1061.949219 1377.511719 1064.601562 C 1380.648438 1067.441406 1384.070312 1070.03125 1387.660156 1072.351562 C 1391.648438 1074.941406 1395.859375 1077.210938 1400.199219 1079.199219 C 1404.800781 1081.300781 1409.570312 1083.101562 1414.410156 1084.589844 C 1419.289062 1086.089844 1424.320312 1087.308594 1429.421875 1088.199219 C 1434.410156 1089.058594 1439.421875 1089.609375 1444.378906 1089.808594 C 1449.039062 1089.988281 1453.75 1089.859375 1458.421875 1089.378906 C 1462.78125 1088.921875 1467.140625 1088.140625 1471.410156 1086.988281 C 1475.691406 1085.839844 1479.820312 1084.328125 1483.789062 1082.488281 C 1487.890625 1080.589844 1491.851562 1078.328125 1495.648438 1075.761719 C 1499.730469 1073 1503.570312 1069.921875 1507.171875 1066.609375 C 1511.039062 1063.050781 1514.660156 1059.199219 1518.039062 1055.148438 C 1521.261719 1051.289062 1524.308594 1047.21875 1527.171875 1043.019531 C 1530.289062 1038.449219 1533.179688 1033.761719 1535.851562 1029.050781 C 1538.539062 1024.300781 1541.140625 1019.300781 1543.511719 1014.171875 C 1545.609375 1009.609375 1547.519531 1004.941406 1549.128906 1000.238281 C 1550.148438 997.289062 1551.019531 994.339844 1551.699219 991.398438 C 1552.171875 989.339844 1552.550781 987.25 1552.820312 985.140625 C 1543.640625 985.480469 1534.589844 984.691406 1525.609375 983.308594 C 1515.789062 981.789062 1506.261719 979.589844 1496.738281 977.390625 C 1492.488281 976.398438 1489.019531 973.769531 1486.859375 970.328125 C 1484.699219 966.890625 1483.839844 962.628906 1484.800781 958.378906 L 1484.820312 958.289062 C 1485.800781 954.039062 1488.429688 950.570312 1491.871094 948.421875 C 1495.308594 946.261719 1499.570312 945.398438 1503.820312 946.351562 L 1505.371094 946.710938 C 1521.089844 950.359375 1537.691406 954.21875 1553.589844 953.230469 C 1555.570312 953.109375 1557.550781 952.910156 1559.511719 952.648438 C 1561.519531 952.378906 1563.519531 952.03125 1565.519531 951.609375 L 1565.730469 951.570312 C 1567.359375 951.230469 1569.039062 950.820312 1570.769531 950.351562 C 1572.589844 949.859375 1574.308594 949.339844 1575.941406 948.800781 C 1579.558594 947.589844 1583.160156 946.128906 1586.660156 944.441406 C 1589.949219 942.851562 1593.171875 941.03125 1596.25 938.96875 L 1596.511719 938.820312 C 1599.148438 937.039062 1601.671875 935.078125 1604.03125 932.921875 L 1604.25 932.738281 C 1606.410156 930.738281 1608.441406 928.558594 1610.28125 926.191406 C 1612.089844 923.851562 1613.679688 921.398438 1615.019531 918.839844 C 1616.378906 916.238281 1617.511719 913.519531 1618.410156 910.699219 C 1622.53125 897.800781 1622.511719 881.300781 1622.488281 867.160156 L 1622.488281 864.359375 L 1622.46875 864.359375 C 1622.46875 859.96875 1624.261719 855.988281 1627.140625 853.109375 L 1627.148438 853.101562 C 1630.039062 850.21875 1634.019531 848.429688 1638.398438 848.429688 C 1642.789062 848.429688 1646.78125 850.21875 1649.660156 853.101562 C 1652.539062 855.980469 1654.320312 859.960938 1654.320312 864.359375 L 1654.320312 865.53125 L 1654.308594 865.53125 C 1654.308594 883.511719 1654.308594 902.851562 1648.730469 920.359375 C 1647.25 925 1645.398438 929.441406 1643.179688 933.648438 C 1640.96875 937.859375 1638.378906 941.878906 1635.429688 945.691406 C 1632.460938 949.519531 1629.179688 953.050781 1625.671875 956.28125 C 1621.980469 959.660156 1618.039062 962.730469 1613.921875 965.46875 L 1613.699219 965.609375 C 1609.53125 968.371094 1605.140625 970.859375 1600.621094 973.050781 C 1595.898438 975.328125 1591 977.308594 1586.03125 978.980469 L 1585.089844 979.28125 L 1585.058594 980.640625 C 1585.019531 982.21875 1584.941406 983.679688 1584.839844 985 C 1584.488281 989.359375 1583.800781 993.699219 1582.828125 998.011719 C 1581.859375 1002.339844 1580.648438 1006.511719 1579.261719 1010.578125 C 1577.519531 1015.640625 1575.46875 1020.71875 1573.21875 1025.730469 C 1571.441406 1029.691406 1569.5 1033.628906 1567.46875 1037.519531 C 1573.71875 1039.78125 1579.949219 1041.929688 1586.121094 1043.808594 C 1593.769531 1046.128906 1601.488281 1048.121094 1609.289062 1049.539062 C 1614.148438 1050.421875 1619.140625 1051.078125 1624.230469 1051.519531 C 1629.230469 1051.949219 1634.160156 1052.140625 1638.980469 1052.078125 C 1643.539062 1052.019531 1648.191406 1051.730469 1652.871094 1051.179688 C 1657.28125 1050.660156 1661.601562 1049.921875 1665.761719 1048.921875 L 1667.828125 1048.390625 L 1670.191406 1047.75 C 1673.46875 1046.789062 1676.730469 1045.640625 1679.898438 1044.28125 L 1679.898438 1044.261719 C 1682.871094 1042.980469 1685.730469 1041.511719 1688.429688 1039.828125 C 1691.210938 1038.101562 1693.828125 1036.128906 1696.171875 1033.910156 L 1696.371094 1033.738281 C 1698.398438 1031.789062 1700.25 1029.609375 1701.851562 1027.179688 C 1703.519531 1024.621094 1704.859375 1021.859375 1705.929688 1019.019531 C 1707.039062 1016.070312 1707.871094 1013.019531 1708.480469 1009.980469 C 1709.308594 1005.871094 1709.800781 1001.621094 1710.011719 997.328125 C 1710.21875 993.03125 1710.160156 988.679688 1709.898438 984.410156 C 1709.648438 980.429688 1709.238281 976.488281 1708.640625 972.628906 C 1708.050781 968.859375 1707.289062 965.109375 1706.339844 961.441406 C 1705.480469 958.128906 1704.449219 954.789062 1703.210938 951.511719 C 1702.109375 948.589844 1700.839844 945.738281 1699.378906 943.03125 C 1696.730469 938.121094 1693.550781 933.96875 1690 930.128906 L 1689.808594 929.921875 C 1686.25 926.089844 1682.230469 922.46875 1678.011719 918.699219 C 1674.738281 915.789062 1672.960938 911.808594 1672.730469 907.738281 C 1672.5 903.671875 1673.808594 899.519531 1676.71875 896.25 L 1676.96875 896 C 1679.859375 892.890625 1683.75 891.191406 1687.710938 890.960938 C 1691.78125 890.730469 1695.929688 892.050781 1699.191406 894.949219 L 1699.421875 895.171875 C 1704.929688 900.089844 1710.011719 904.789062 1714.640625 909.949219 C 1719.410156 915.25 1723.679688 921.011719 1727.410156 927.941406 C 1728.648438 930.261719 1729.820312 932.671875 1730.898438 935.140625 L 1731.289062 936.058594 C 1733.800781 932.390625 1736.109375 928.589844 1738.160156 924.648438 C 1741.28125 918.660156 1743.800781 912.371094 1745.511719 905.761719 C 1748.511719 894.238281 1748.839844 882.589844 1747.339844 871.101562 C 1745.820312 859.480469 1742.441406 847.988281 1738.039062 836.921875 C 1736.78125 833.761719 1735.300781 830.601562 1733.628906 827.5 C 1732.039062 824.589844 1730.269531 821.730469 1728.308594 818.988281 C 1726.5 816.46875 1724.550781 814.070312 1722.460938 811.859375 C 1720.53125 809.808594 1718.429688 807.871094 1716.171875 806.121094 C 1714.070312 804.488281 1711.871094 803.039062 1709.578125 801.78125 C 1707.238281 800.488281 1704.828125 799.398438 1702.378906 798.519531 C 1699.929688 797.640625 1697.378906 796.941406 1694.78125 796.449219 C 1692.21875 795.960938 1689.640625 795.671875 1687.089844 795.609375 C 1684.628906 795.550781 1682.101562 795.710938 1679.539062 796.019531 C 1676.960938 796.328125 1674.421875 796.800781 1671.941406 797.359375 C 1666.511719 798.589844 1660.921875 800.359375 1655.359375 802.109375 L 1654.558594 802.359375 C 1650.441406 803.601562 1646.191406 803.078125 1642.640625 801.230469 C 1639.019531 799.351562 1636.121094 796.089844 1634.800781 791.910156 L 1634.738281 791.691406 C 1633.5 787.570312 1634.019531 783.320312 1635.859375 779.761719 C 1637.738281 776.148438 1641 773.25 1645.191406 771.929688 C 1648.128906 771 1651.109375 770.058594 1654.929688 768.941406 C 1658.261719 767.96875 1661.589844 767.070312 1664.921875 766.320312 C 1668.699219 765.460938 1672.480469 764.78125 1676.261719 764.351562 C 1680.058594 763.910156 1683.921875 763.710938 1687.871094 763.800781 L 1688.171875 763.808594 L 1688.191406 762.25 C 1688.210938 759.691406 1688.121094 757.050781 1687.890625 754.328125 C 1687.679688 751.71875 1687.328125 749.140625 1686.828125 746.570312 C 1686.238281 743.621094 1685.449219 740.691406 1684.460938 737.828125 C 1683.449219 734.871094 1682.261719 732.039062 1680.910156 729.359375 C 1679.511719 726.558594 1677.910156 723.851562 1676.148438 721.25 C 1674.351562 718.601562 1672.359375 716.039062 1670.210938 713.601562 C 1667.679688 710.710938 1664.921875 707.96875 1662.039062 705.390625 C 1658.859375 702.539062 1655.519531 699.878906 1652.121094 697.398438 C 1648.511719 694.769531 1644.691406 692.261719 1640.699219 689.890625 C 1636.660156 687.488281 1632.578125 685.300781 1628.480469 683.339844 C 1624.441406 681.410156 1620.238281 679.640625 1615.890625 678.039062 C 1611.660156 676.488281 1607.410156 675.148438 1603.160156 674.050781 C 1599.070312 672.988281 1594.871094 672.121094 1590.570312 671.460938 C 1586.398438 670.828125 1582.261719 670.410156 1578.199219 670.238281 C 1574.058594 670.070312 1569.839844 670.128906 1565.601562 670.46875 C 1561.621094 670.78125 1557.671875 671.339844 1553.808594 672.179688 L 1553.660156 672.210938 C 1550.21875 672.949219 1546.808594 673.929688 1543.511719 675.171875 C 1540.410156 676.339844 1537.421875 677.730469 1534.621094 679.371094 C 1530.589844 681.71875 1526.839844 684.679688 1523.300781 687.980469 C 1520.828125 690.28125 1518.460938 692.761719 1516.179688 695.328125 C 1518.578125 696.808594 1520.929688 698.421875 1523.21875 700.140625 C 1526.160156 702.351562 1528.960938 704.699219 1531.558594 707.179688 C 1534.53125 710 1537.308594 713.03125 1539.890625 716.21875 C 1542.480469 719.398438 1544.890625 722.820312 1547.121094 726.421875 C 1549.339844 730.011719 1551.320312 733.710938 1553.058594 737.480469 C 1554.808594 741.289062 1556.339844 745.21875 1557.628906 749.25 C 1558.890625 753.171875 1559.929688 757.179688 1560.761719 761.238281 C 1561.621094 765.429688 1562.25 769.660156 1562.671875 773.878906 C 1563.089844 778.121094 1563.308594 782.421875 1563.308594 786.738281 C 1563.308594 791 1563.089844 795.230469 1562.660156 799.378906 C 1562.25 803.328125 1561.621094 807.289062 1560.75 811.21875 C 1559.871094 815.160156 1558.738281 819.039062 1557.328125 822.820312 C 1555.960938 826.460938 1554.328125 829.988281 1552.429688 833.339844 C 1550.589844 836.578125 1548.480469 839.679688 1546.089844 842.589844 C 1543.820312 845.351562 1541.320312 847.910156 1538.640625 850.269531 C 1535.910156 852.671875 1532.960938 854.871094 1529.871094 856.839844 C 1526.738281 858.839844 1523.488281 860.601562 1520.171875 862.101562 C 1516.828125 863.609375 1513.351562 864.898438 1509.761719 865.949219 C 1505.761719 867.121094 1501.871094 867.921875 1497.988281 868.511719 C 1494.128906 869.089844 1490.238281 869.480469 1486.28125 869.820312 L 1484.921875 869.929688 L 1484.238281 871.410156 L 1484.070312 871.710938 L 1483.070312 873.761719 C 1481.351562 877.269531 1479.578125 880.730469 1477.738281 884.109375 C 1475.839844 887.601562 1473.878906 890.980469 1471.859375 894.210938 C 1469.289062 898.320312 1466.46875 902.460938 1463.351562 906.429688 C 1460.210938 910.429688 1456.828125 914.21875 1453.171875 917.589844 C 1449.429688 921.03125 1445.429688 924.019531 1441.171875 926.578125 C 1436.859375 929.179688 1432.261719 931.351562 1427.410156 933.109375 C 1422.820312 934.769531 1418.140625 936.019531 1413.398438 936.941406 C 1408.691406 937.851562 1403.929688 938.449219 1399.171875 938.808594 C 1394.429688 939.160156 1389.558594 939.300781 1384.628906 939.210938 C 1379.671875 939.128906 1374.769531 938.820312 1369.96875 938.308594 C 1365.578125 937.828125 1361.089844 937.171875 1356.648438 936.238281 C 1352.148438 935.308594 1347.71875 934.121094 1343.53125 932.621094 C 1339.941406 931.328125 1336.671875 929.890625 1333.609375 928.261719 C 1332.070312 927.441406 1330.578125 926.570312 1329.101562 925.640625 C 1327.828125 928.929688 1326.460938 932.171875 1324.960938 935.371094 C 1322.738281 940.109375 1320.21875 944.738281 1317.28125 949.210938 C 1314.871094 952.878906 1312.25 956.308594 1309.460938 959.488281 C 1306.628906 962.691406 1303.550781 965.71875 1300.238281 968.558594 C 1296.800781 971.5 1293.171875 974.179688 1289.390625 976.589844 C 1285.480469 979.101562 1281.378906 981.351562 1277.160156 983.351562 C 1272.398438 985.601562 1267.429688 987.558594 1262.351562 989.199219 C 1257.320312 990.808594 1252.171875 992.109375 1246.980469 993.050781 C 1241.910156 993.96875 1236.738281 994.550781 1231.558594 994.730469 C 1226.660156 994.898438 1221.730469 994.699219 1216.839844 994.070312 C 1211.941406 993.449219 1207.121094 992.390625 1202.429688 991.011719 C 1197.371094 989.519531 1192.441406 987.640625 1187.691406 985.5 C 1184.058594 983.859375 1180.511719 982.058594 1177.039062 980.121094 C 1173.5 978.128906 1169.988281 975.960938 1166.539062 973.640625 C 1162.449219 970.890625 1159 968.300781 1155.808594 965.488281 C 1152.601562 962.660156 1149.601562 959.558594 1146.441406 955.839844 L 1146.359375 955.730469 C 1143.71875 952.609375 1142.46875 948.730469 1142.609375 944.890625 C 1142.75 941.011719 1144.308594 937.160156 1147.261719 934.210938 C 1147.328125 934.121094 1147.410156 934.050781 1147.488281 933.980469 C 1150.570312 931.019531 1154.550781 929.539062 1158.511719 929.539062 C 1162.578125 929.539062 1166.648438 931.101562 1169.761719 934.199219 C 1169.789062 934.199219 1170.371094 934.851562 1170.398438 934.871094 L 1170.660156 935.191406 C 1172.859375 937.78125 1174.828125 939.828125 1176.941406 941.679688 C 1179.070312 943.558594 1181.398438 945.289062 1184.28125 947.21875 C 1186.910156 948.988281 1189.671875 950.691406 1192.539062 952.300781 C 1195.238281 953.820312 1197.988281 955.21875 1200.78125 956.480469 C 1204.011719 957.941406 1207.339844 959.230469 1210.699219 960.261719 C 1214.058594 961.289062 1217.480469 962.078125 1220.878906 962.511719 C 1224.101562 962.929688 1227.390625 963.039062 1230.679688 962.921875 C 1234.261719 962.789062 1237.828125 962.371094 1241.320312 961.738281 C 1245.101562 961.058594 1248.890625 960.101562 1252.621094 958.890625 C 1256.351562 957.691406 1260.019531 956.238281 1263.550781 954.570312 C 1266.539062 953.160156 1269.421875 951.589844 1272.128906 949.859375 C 1274.699219 948.21875 1277.179688 946.398438 1279.539062 944.371094 C 1281.71875 942.511719 1283.738281 940.53125 1285.578125 938.429688 C 1287.449219 936.320312 1289.148438 934.089844 1290.699219 931.738281 C 1293.539062 927.421875 1295.921875 922.710938 1297.980469 917.828125 C 1300.078125 912.871094 1301.851562 907.761719 1303.460938 902.710938 L 1303.621094 902.199219 L 1303.609375 902.199219 C 1305.070312 897.578125 1306.570312 892.871094 1310.699219 889.128906 C 1314.511719 885.691406 1318.710938 884.390625 1322.898438 884.660156 C 1327.421875 884.941406 1331.789062 887.089844 1335.511719 890.320312 L 1337.191406 891.839844 C 1339.960938 894.308594 1342.519531 896.421875 1345.261719 898.210938 C 1347.910156 899.941406 1350.78125 901.390625 1354.25 902.628906 C 1357.28125 903.710938 1360.441406 904.550781 1363.589844 905.179688 C 1366.800781 905.828125 1370.121094 906.308594 1373.378906 906.660156 C 1377.300781 907.078125 1381.238281 907.328125 1385.128906 907.398438 C 1388.949219 907.460938 1392.859375 907.351562 1396.78125 907.058594 C 1400.199219 906.800781 1403.601562 906.390625 1406.910156 905.769531 C 1410.210938 905.148438 1413.449219 904.308594 1416.570312 903.179688 C 1419.398438 902.160156 1422.070312 900.910156 1424.570312 899.421875 C 1427.050781 897.941406 1429.398438 896.199219 1431.609375 894.171875 C 1434.140625 891.839844 1436.5 889.148438 1438.691406 886.300781 C 1440.898438 883.441406 1442.96875 880.371094 1444.859375 877.351562 C 1446.671875 874.449219 1448.339844 871.570312 1449.890625 868.71875 C 1451.398438 865.960938 1452.929688 862.949219 1454.46875 859.789062 L 1455.621094 857.429688 C 1457.980469 852.601562 1459.980469 848.640625 1463.078125 845.410156 C 1466.339844 842.011719 1470.488281 839.761719 1476.859375 838.789062 C 1478.941406 838.480469 1481.019531 838.300781 1483.070312 838.128906 L 1483.609375 838.078125 C 1486.628906 837.828125 1489.621094 837.550781 1492.460938 837.148438 C 1495.328125 836.738281 1498.140625 836.191406 1500.859375 835.398438 C 1502.910156 834.800781 1504.980469 834.03125 1507.03125 833.109375 C 1509.050781 832.199219 1510.96875 831.160156 1512.761719 830.019531 C 1514.429688 828.949219 1516.050781 827.75 1517.570312 826.429688 C 1518.988281 825.191406 1520.320312 823.839844 1521.5 822.390625 C 1522.730469 820.890625 1523.839844 819.25 1524.820312 817.5 C 1525.890625 815.601562 1526.789062 813.640625 1527.53125 811.660156 C 1528.441406 809.238281 1529.160156 806.679688 1529.738281 804.050781 C 1530.320312 801.371094 1530.730469 798.710938 1531 796.089844 C 1531.320312 793.039062 1531.480469 789.890625 1531.480469 786.679688 L 1531.488281 786.679688 C 1531.488281 783.46875 1531.328125 780.238281 1531.011719 777.03125 C 1530.691406 773.898438 1530.230469 770.78125 1529.601562 767.699219 C 1529.011719 764.761719 1528.25 761.839844 1527.339844 758.988281 C 1526.449219 756.230469 1525.378906 753.488281 1524.148438 750.808594 L 1524.058594 750.609375 C 1522.878906 748.050781 1521.539062 745.550781 1520.050781 743.148438 C 1518.578125 740.78125 1516.960938 738.46875 1515.179688 736.269531 C 1513.46875 734.148438 1511.621094 732.128906 1509.640625 730.25 C 1507.878906 728.578125 1506.019531 727.019531 1504.121094 725.589844 C 1502.238281 724.179688 1500.199219 722.828125 1498.039062 721.570312 C 1496.199219 720.5 1494.199219 719.449219 1492.160156 718.570312 C 1490.429688 717.820312 1488.699219 717.199219 1487.058594 716.800781 L 1486.890625 716.75 C 1485.949219 716.53125 1485 716.390625 1484.03125 716.28125 C 1482.929688 716.160156 1481.820312 716.101562 1480.691406 716.039062 C 1477.449219 715.871094 1474.449219 715.578125 1471.539062 714.75 C 1468.441406 713.878906 1465.519531 712.429688 1462.691406 709.96875 C 1457.949219 705.851562 1455.578125 700.519531 1453.261719 695.300781 L 1453.179688 695.128906 C 1452.558594 693.730469 1451.921875 692.308594 1451.058594 690.550781 C 1450.359375 689.109375 1449.609375 687.699219 1448.78125 686.339844 C 1447.71875 684.621094 1446.539062 683 1445.261719 681.488281 C 1443.910156 679.878906 1442.410156 678.359375 1440.828125 676.929688 C 1439.101562 675.371094 1437.28125 673.949219 1435.410156 672.660156 C 1433.441406 671.300781 1431.351562 670.050781 1429.179688 668.910156 C 1426.449219 667.46875 1423.539062 666.191406 1420.53125 665.070312 C 1417.328125 663.890625 1414.128906 662.921875 1410.980469 662.160156 C 1407.710938 661.371094 1404.328125 660.75 1400.871094 660.328125 C 1397.378906 659.890625 1393.941406 659.660156 1390.589844 659.628906 C 1386.828125 659.601562 1383 659.800781 1379.148438 660.210938 C 1375.261719 660.628906 1371.339844 661.28125 1367.460938 662.128906 C 1363.710938 662.949219 1359.96875 663.96875 1356.328125 665.210938 C 1352.949219 666.359375 1349.609375 667.71875 1346.378906 669.289062 L 1346.089844 669.421875 C 1343.269531 670.820312 1340.53125 672.421875 1337.871094 674.171875 L 1337.648438 674.308594 C 1335.011719 676.058594 1332.421875 678 1329.871094 680.078125 C 1324.488281 684.5 1319.53125 689.300781 1314.589844 694.089844 L 1314.429688 694.25 C 1311.28125 697.300781 1307.191406 698.789062 1303.128906 698.738281 C 1299.070312 698.679688 1295.03125 697.078125 1291.980469 693.96875 L 1291.699219 693.671875 C 1288.800781 690.558594 1287.390625 686.570312 1287.441406 682.609375 C 1287.5 678.550781 1289.089844 674.511719 1292.210938 671.460938 L 1292.46875 671.210938 C 1295.25 668.519531 1298.019531 665.828125 1300.769531 663.289062 C 1303.71875 660.558594 1306.699219 657.910156 1309.71875 655.429688 C 1311.238281 654.199219 1312.890625 652.910156 1314.699219 651.558594 C 1316 650.601562 1317.308594 649.648438 1318.648438 648.738281 C 1320.640625 641.660156 1322.71875 634.910156 1325.28125 628.28125 C 1328.039062 621.140625 1331.339844 614.171875 1335.640625 607.121094 C 1338.628906 602.238281 1341.960938 597.511719 1345.578125 593.019531 C 1349.199219 588.53125 1353.121094 584.269531 1357.261719 580.308594 L 1358.648438 579.011719 L 1358.609375 578.960938 C 1357.980469 577.980469 1357.339844 577.019531 1356.699219 576.101562 C 1355.460938 574.300781 1354.121094 572.46875 1352.691406 570.699219 C 1351.300781 568.988281 1349.839844 567.339844 1348.308594 565.871094 C 1345.921875 563.570312 1343.339844 561.410156 1340.648438 559.398438 C 1337.789062 557.269531 1334.78125 555.300781 1331.71875 553.519531 C 1328.511719 551.648438 1325.261719 549.980469 1321.988281 548.53125 C 1318.648438 547.039062 1315.210938 545.738281 1311.710938 544.621094 C 1307.269531 543.199219 1302.601562 542.039062 1297.828125 541.101562 C 1293.058594 540.160156 1288.28125 539.449219 1283.550781 538.929688 C 1278.089844 538.320312 1272.628906 537.941406 1267.21875 537.78125 C 1261.730469 537.621094 1256.210938 537.679688 1250.710938 537.960938 C 1245.898438 538.199219 1241.039062 538.621094 1236.199219 539.28125 C 1231.410156 539.941406 1226.660156 540.839844 1222.039062 542.050781 C 1218.648438 542.941406 1215.21875 544.019531 1211.898438 545.371094 C 1208.660156 546.671875 1205.519531 548.230469 1202.621094 550.089844 C 1198.480469 552.730469 1194.871094 556.03125 1191.601562 559.699219 C 1189 562.621094 1186.621094 565.769531 1184.371094 569.011719 C 1193.648438 577.230469 1202.171875 586.808594 1210.25 595.890625 L 1212.949219 598.941406 C 1215.820312 602.199219 1217.109375 606.320312 1216.878906 610.351562 C 1216.648438 614.371094 1214.910156 618.300781 1211.71875 621.210938 L 1211.429688 621.46875 C 1208.191406 624.289062 1204.101562 625.550781 1200.121094 625.351562 C 1196.121094 625.140625 1192.21875 623.441406 1189.371094 620.320312 C 1188.148438 618.96875 1186.859375 617.578125 1185.699219 616.191406 C 1177.691406 607.148438 1169.03125 597.421875 1160.039062 590.070312 C 1158.320312 588.671875 1156.550781 587.351562 1154.699219 586.160156 C 1152.859375 584.96875 1150.96875 583.921875 1149.011719 583.019531 C 1146.851562 582.039062 1144.558594 581.210938 1142.191406 580.5 C 1139.78125 579.78125 1137.339844 579.191406 1134.910156 578.660156 C 1131.109375 577.851562 1127.300781 577.199219 1123.53125 576.699219 C 1119.550781 576.171875 1115.511719 575.789062 1111.441406 575.539062 C 1107.21875 575.289062 1103.050781 575.179688 1098.949219 575.210938 C 1094.851562 575.25 1090.628906 575.429688 1086.328125 575.761719 C 1080.789062 576.179688 1075.289062 576.820312 1069.890625 577.699219 C 1064.628906 578.550781 1059.320312 579.648438 1054.011719 581 C 1049.328125 582.191406 1044.699219 583.570312 1040.199219 585.171875 C 1035.679688 586.769531 1031.261719 588.609375 1027.019531 590.71875 C 1022.769531 592.820312 1018.671875 595.210938 1014.839844 597.890625 C 1011.21875 600.421875 1007.78125 603.230469 1004.609375 606.339844 C 1001.640625 609.261719 998.953125 612.390625 996.609375 615.691406 C 994.324219 618.921875 992.324219 622.371094 990.652344 626.039062 C 983.273438 642.179688 981.78125 663.671875 980.515625 681.980469 L 980.3125 684.898438 C 980.007812 689.238281 977.957031 693.078125 974.902344 695.75 C 971.847656 698.429688 967.785156 699.949219 963.453125 699.679688 L 963.195312 699.671875 C 958.90625 699.328125 955.121094 697.289062 952.472656 694.269531 C 949.800781 691.210938 948.277344 687.148438 948.546875 682.820312 L 948.625 681.648438 C 949.386719 670.808594 950.164062 659.769531 951.773438 648.878906 L 951.117188 648.910156 C 949.339844 649.011719 947.574219 649.148438 945.820312 649.328125 C 943.304688 649.589844 940.71875 649.960938 938.070312 650.429688 C 935.449219 650.898438 932.859375 651.449219 930.3125 652.089844 C 926.640625 653.011719 923.058594 654.070312 919.613281 655.261719 C 916.132812 656.460938 912.671875 657.828125 909.273438 659.351562 C 906.28125 660.691406 903.34375 662.148438 900.539062 663.730469 C 897.765625 665.300781 895.035156 667.039062 892.402344 668.960938 C 889.722656 670.921875 887.230469 673.039062 884.929688 675.320312 C 882.613281 677.621094 880.476562 680.101562 878.503906 682.75 C 876.253906 685.789062 874.257812 689 872.484375 692.320312 C 870.6875 695.679688 869.101562 699.171875 867.691406 702.710938 C 865.839844 707.359375 864.226562 712.21875 862.9375 717.160156 C 861.71875 721.828125 860.785156 726.601562 860.210938 731.378906 C 859.746094 735.210938 859.484375 739.140625 859.566406 742.96875 C 859.648438 746.761719 860.0625 750.53125 860.949219 754.128906 L 861 754.339844 C 864.910156 770.011719 877.914062 784.179688 889.03125 796.289062 L 890.226562 797.589844 L 890.445312 797.859375 C 893.261719 801.058594 894.5625 805.089844 894.390625 809.050781 C 894.210938 813.121094 892.484375 817.121094 889.257812 820.078125 L 888.992188 820.308594 C 885.789062 823.121094 881.761719 824.421875 877.804688 824.238281 C 873.742188 824.070312 869.738281 822.339844 866.769531 819.101562 C 861.257812 813.078125 855.703125 807.011719 850.671875 800.730469 C 846.59375 795.640625 842.792969 790.351562 839.507812 784.738281 C 837.898438 786.390625 836.34375 788.078125 834.847656 789.851562 C 832.273438 792.890625 829.867188 796.148438 827.671875 799.730469 C 825.597656 803.121094 823.742188 806.699219 822.113281 810.359375 C 820.402344 814.199219 818.925781 818.179688 817.691406 822.171875 C 816.476562 826.109375 815.472656 830.148438 814.746094 834.179688 C 814.0625 838 813.609375 841.859375 813.449219 845.699219 C 813.304688 849.140625 813.402344 852.648438 813.714844 856.199219 C 814.035156 859.871094 814.585938 863.488281 815.328125 867.011719 C 816.109375 870.710938 817.113281 874.390625 818.328125 877.988281 C 819.511719 881.5 820.925781 885 822.550781 888.410156 L 822.640625 888.621094 C 823.777344 890.988281 824.992188 893.269531 826.300781 895.429688 C 827.667969 897.660156 829.160156 899.828125 830.796875 901.890625 C 832.128906 903.570312 833.535156 905.160156 835.003906 906.648438 C 836.457031 908.121094 838.027344 909.550781 839.699219 910.941406 C 841.160156 912.148438 842.617188 913.269531 844.070312 914.300781 L 844.941406 914.921875 C 845.4375 913.878906 845.949219 912.851562 846.476562 911.808594 C 848.292969 908.28125 850.222656 904.941406 852.230469 901.78125 C 854.25 898.601562 856.429688 895.441406 858.722656 892.320312 C 860.855469 889.410156 863.046875 886.578125 865.265625 883.789062 C 867.734375 880.691406 869.859375 878.089844 871.96875 875.511719 L 872.207031 875.25 C 874.972656 872.019531 878.777344 870.160156 882.722656 869.769531 C 886.78125 869.371094 890.988281 870.5 894.375 873.28125 L 894.644531 873.519531 C 897.871094 876.28125 899.730469 880.089844 900.121094 884.03125 C 900.523438 888.089844 899.386719 892.300781 896.613281 895.679688 L 896.382812 895.960938 C 892.25 901.019531 888.105469 906.078125 884.390625 911.140625 C 882.5625 913.640625 880.828125 916.128906 879.253906 918.589844 C 877.648438 921.109375 876.144531 923.691406 874.789062 926.328125 C 873.46875 928.898438 872.257812 931.621094 871.167969 934.46875 C 870.101562 937.261719 869.203125 940.050781 868.484375 942.820312 C 867.789062 945.488281 867.238281 948.238281 866.855469 951.019531 C 866.484375 953.710938 866.273438 956.378906 866.242188 959.011719 C 866.214844 961.761719 866.378906 964.519531 866.746094 967.261719 C 867.105469 969.929688 867.660156 972.558594 868.421875 975.140625 C 869.191406 977.769531 870.15625 980.289062 871.289062 982.710938 C 872.464844 985.230469 873.835938 987.660156 875.371094 989.988281 C 877.152344 992.691406 879.199219 995.320312 881.449219 997.851562 C 883.820312 1000.511719 886.359375 1002.980469 888.996094 1005.261719 C 891.851562 1007.71875 894.871094 1010 898.015625 1012.101562 C 901.257812 1014.269531 904.648438 1016.25 908.144531 1018.050781 C 912.078125 1020.070312 916.195312 1021.890625 920.40625 1023.46875 C 924.601562 1025.050781 928.910156 1026.398438 933.242188 1027.488281 C 937.070312 1028.441406 941.09375 1029.238281 945.132812 1029.730469 C 948.660156 1030.148438 952.171875 1030.328125 955.527344 1030.179688 C 958.546875 1030.050781 961.445312 1029.621094 964.277344 1028.941406 C 967.105469 1028.269531 969.929688 1027.320312 972.785156 1026.128906 C 974.671875 1025.339844 976.511719 1024.480469 978.3125 1023.570312 C 979.417969 1023.019531 980.546875 1022.421875 981.691406 1021.800781 L 981.644531 1020.390625 C 981.601562 1018.769531 981.578125 1017.480469 981.578125 1016.519531 C 981.578125 1012.601562 981.761719 1008.550781 982.144531 1004.410156 C 982.433594 1001.28125 982.832031 998.210938 983.347656 995.210938 C 977.359375 990.710938 971.242188 986.011719 965.480469 981.140625 C 958.949219 975.628906 952.761719 969.808594 947.5 963.640625 C 944.675781 960.320312 942.101562 956.859375 939.828125 953.21875 C 937.558594 949.589844 935.5625 945.75 933.886719 941.671875 C 932.351562 937.941406 931.136719 934.140625 930.203125 930.269531 C 929.269531 926.410156 928.609375 922.5 928.171875 918.539062 C 927.722656 914.441406 927.507812 910.25 927.53125 906.019531 C 927.554688 901.769531 927.8125 897.578125 928.300781 893.519531 C 928.796875 889.441406 929.535156 885.359375 930.53125 881.320312 C 931.496094 877.410156 932.699219 873.570312 934.15625 869.828125 L 934.238281 869.640625 C 935.707031 865.898438 937.433594 862.261719 939.355469 858.71875 C 941.316406 855.109375 943.457031 851.648438 945.714844 848.339844 C 947.5625 845.640625 949.570312 842.921875 951.71875 840.210938 C 953.816406 837.558594 955.988281 834.988281 958.21875 832.5 L 960.285156 830.21875 L 962.90625 827.410156 C 963.800781 826.46875 965.328125 824.859375 966.214844 823.789062 C 965.84375 822.328125 965.066406 820.089844 964.601562 818.75 L 964.265625 817.789062 C 963.699219 816.121094 963.140625 814.449219 962.625 812.820312 C 962.097656 811.140625 961.585938 809.390625 961.097656 807.511719 C 960.269531 804.308594 959.621094 801.070312 959.183594 797.820312 C 958.765625 794.71875 958.53125 791.558594 958.519531 788.359375 C 958.507812 784.5 958.8125 780.691406 959.457031 776.980469 C 960.09375 773.328125 961.066406 769.691406 962.394531 766.121094 C 963.769531 762.421875 965.503906 758.851562 967.503906 755.449219 C 969.644531 751.808594 972.085938 748.351562 974.710938 745.140625 C 977.394531 741.839844 980.308594 738.730469 983.390625 735.828125 C 986.585938 732.820312 989.972656 730.019531 993.484375 727.441406 C 996.96875 724.890625 1000.609375 722.519531 1004.351562 720.378906 C 1008.03125 718.261719 1011.910156 716.320312 1015.921875 714.578125 C 1019.761719 712.910156 1023.808594 711.398438 1027.910156 710.238281 C 1031.578125 709.199219 1035.339844 708.421875 1039.089844 708.039062 C 1042.320312 707.699219 1045.320312 707.679688 1048.230469 707.890625 C 1049.960938 708.019531 1051.679688 708.230469 1053.410156 708.519531 L 1053.648438 707.789062 C 1054.578125 705.070312 1055.699219 702.449219 1057.050781 699.921875 C 1058.390625 697.410156 1059.960938 695.011719 1061.789062 692.699219 C 1064.171875 689.691406 1066.859375 687 1069.769531 684.589844 C 1072.679688 682.171875 1075.761719 680.039062 1078.929688 678.148438 C 1083.109375 675.671875 1087.601562 673.460938 1092.21875 671.539062 C 1097.101562 669.511719 1102.148438 667.800781 1107.128906 666.421875 C 1112.011719 665.078125 1117.039062 664 1122.089844 663.300781 C 1126.78125 662.648438 1131.53125 662.328125 1136.261719 662.421875 C 1141.441406 662.511719 1146.5 663.109375 1151.460938 664.128906 C 1156.378906 665.128906 1161.230469 666.539062 1166.019531 668.261719 C 1170.371094 669.820312 1174.519531 671.558594 1178.550781 673.398438 C 1182.339844 675.121094 1186.46875 677.128906 1190.609375 679.160156 C 1194.558594 681.089844 1197.351562 684.449219 1198.671875 688.300781 C 1199.949219 692.019531 1199.839844 696.210938 1198.089844 700.058594 C 1197.988281 700.320312 1197.871094 700.570312 1197.71875 700.808594 C 1195.761719 704.558594 1192.5 707.230469 1188.761719 708.511719 C 1185.050781 709.78125 1180.851562 709.679688 1177.011719 707.921875 C 1176.761719 707.828125 1176.519531 707.71875 1176.300781 707.578125 L 1175.960938 707.410156 C 1169.160156 704.089844 1162.300781 700.71875 1155.269531 698.199219 C 1152.089844 697.058594 1148.851562 696.089844 1145.550781 695.398438 C 1142.289062 694.710938 1139.011719 694.289062 1135.699219 694.230469 C 1132.601562 694.171875 1129.378906 694.410156 1126.171875 694.871094 C 1122.570312 695.378906 1119.011719 696.160156 1115.609375 697.101562 C 1111.980469 698.101562 1108.238281 699.359375 1104.621094 700.851562 C 1101.351562 702.210938 1098.140625 703.769531 1095.179688 705.53125 L 1094.921875 705.671875 C 1093.441406 706.558594 1091.949219 707.570312 1090.53125 708.710938 C 1089.101562 709.851562 1087.800781 711.089844 1086.738281 712.429688 C 1086.078125 713.269531 1085.519531 714.140625 1085.039062 715.050781 C 1084.570312 715.960938 1084.160156 716.949219 1083.78125 718.058594 C 1083.308594 719.449219 1082.949219 720.730469 1082.609375 722 L 1082.5 722.390625 C 1081.359375 726.519531 1079.96875 730.511719 1077.609375 733.890625 C 1074.96875 737.648438 1071.300781 740.488281 1065.808594 741.679688 C 1063.359375 742.210938 1061.058594 742.238281 1058.789062 741.988281 C 1056.648438 741.769531 1054.679688 741.320312 1052.648438 740.839844 L 1052.628906 740.828125 C 1050.679688 740.371094 1048.890625 739.980469 1047.300781 739.769531 C 1045.710938 739.570312 1044.101562 739.519531 1042.339844 739.699219 C 1040.140625 739.921875 1037.789062 740.46875 1035.46875 741.179688 C 1033.039062 741.929688 1030.691406 742.839844 1028.558594 743.761719 C 1025.730469 745 1022.921875 746.410156 1020.191406 747.980469 C 1017.5 749.519531 1014.851562 751.25 1012.308594 753.121094 C 1009.859375 754.910156 1007.5 756.851562 1005.289062 758.929688 C 1003.171875 760.921875 1001.179688 763.03125 999.382812 765.238281 C 997.820312 767.148438 996.339844 769.210938 995.0625 771.359375 L 994.941406 771.539062 C 993.878906 773.359375 992.945312 775.25 992.21875 777.199219 C 991.589844 778.898438 991.125 780.671875 990.8125 782.5 C 990.484375 784.429688 990.332031 786.359375 990.339844 788.28125 C 990.34375 790.101562 990.5 791.980469 990.773438 793.898438 C 991.046875 795.828125 991.4375 797.71875 991.90625 799.539062 L 991.945312 799.710938 C 992.285156 801 992.671875 802.300781 993.089844 803.609375 C 993.375 804.511719 993.925781 806.128906 994.472656 807.738281 L 994.558594 807.988281 C 996.621094 814.070312 998.753906 820.339844 998.160156 827.238281 C 997.730469 832.261719 996.019531 836.378906 993.605469 840.101562 C 991.363281 843.550781 988.539062 846.578125 985.605469 849.71875 L 983.742188 851.71875 L 983.75 851.730469 L 981.917969 853.730469 C 980.191406 855.648438 978.460938 857.699219 976.738281 859.871094 L 976.570312 860.070312 C 975.027344 862.03125 973.503906 864.101562 972.007812 866.289062 C 970.386719 868.660156 968.847656 871.128906 967.449219 873.679688 C 966.074219 876.191406 964.839844 878.769531 963.8125 881.410156 C 962.84375 883.890625 962.046875 886.449219 961.414062 889.03125 C 960.75 891.738281 960.253906 894.511719 959.914062 897.320312 C 959.554688 900.320312 959.363281 903.289062 959.347656 906.191406 C 959.332031 909.128906 959.488281 912.109375 959.816406 915.101562 C 960.089844 917.589844 960.496094 920.070312 961.078125 922.53125 C 961.652344 924.949219 962.382812 927.300781 963.3125 929.570312 C 964.320312 932.011719 965.546875 934.328125 966.949219 936.558594 C 968.359375 938.789062 969.960938 940.921875 971.710938 942.96875 C 975.203125 947.070312 979.347656 951.078125 983.789062 954.949219 C 987.089844 957.828125 990.601562 960.679688 994.152344 963.449219 L 995.441406 961.058594 C 996.691406 958.808594 997.980469 956.660156 999.308594 954.578125 C 1000.75 952.320312 1002.289062 950.089844 1003.941406 947.921875 C 1005.589844 945.75 1007.378906 943.640625 1009.328125 941.648438 C 1011.371094 939.570312 1013.53125 937.671875 1015.828125 935.980469 C 1018.128906 934.300781 1020.601562 932.800781 1023.261719 931.488281 C 1025.988281 930.160156 1028.71875 929.109375 1031.449219 928.25 C 1032.910156 927.789062 1034.421875 927.359375 1035.96875 926.96875 C 1035.710938 925.589844 1035.449219 924.179688 1035.21875 922.738281 C 1034.78125 920.058594 1034.410156 917.359375 1034.140625 914.640625 C 1033.660156 909.960938 1033.429688 905.230469 1033.519531 900.46875 C 1033.601562 895.921875 1033.960938 891.421875 1034.628906 887.050781 C 1035.339844 882.390625 1036.421875 877.738281 1037.78125 873.171875 C 1039.210938 868.378906 1040.980469 863.621094 1042.988281 858.960938 C 1045.050781 854.21875 1047.371094 849.570312 1049.910156 845.101562 C 1052.480469 840.589844 1055.269531 836.25 1058.238281 832.148438 C 1060.910156 828.480469 1063.820312 824.910156 1066.96875 821.460938 C 1070.011719 818.128906 1073.210938 815 1076.589844 812.101562 C 1079.828125 809.300781 1083.238281 806.699219 1086.800781 804.289062 C 1090.410156 801.839844 1094.078125 799.628906 1097.78125 797.671875 C 1101.371094 795.761719 1105.160156 793.980469 1109.101562 792.351562 C 1112.980469 790.75 1116.921875 789.328125 1120.890625 788.109375 C 1124.851562 786.898438 1128.878906 785.859375 1132.910156 785.058594 C 1136.710938 784.308594 1140.570312 783.761719 1144.429688 783.46875 C 1148.128906 783.179688 1151.859375 783.140625 1155.578125 783.371094 C 1159.191406 783.601562 1162.761719 784.078125 1166.289062 784.851562 C 1169.539062 785.550781 1172.769531 786.511719 1175.949219 787.699219 C 1179.140625 788.898438 1182.25 790.328125 1185.269531 791.960938 C 1187.828125 793.359375 1190.21875 794.820312 1192.46875 796.351562 C 1193.378906 796.960938 1194.28125 797.589844 1195.191406 798.238281 C 1195.660156 797.230469 1196.140625 796.230469 1196.621094 795.25 C 1197.808594 792.828125 1199.089844 790.421875 1200.441406 788.039062 C 1203.039062 783.460938 1205.949219 779 1209.191406 774.800781 C 1212.21875 770.890625 1215.53125 767.210938 1219.140625 763.859375 C 1222.871094 760.390625 1226.941406 757.289062 1231.21875 754.511719 C 1235.800781 751.550781 1240.601562 748.980469 1245.488281 746.769531 C 1250.519531 744.511719 1255.78125 742.558594 1261.171875 740.921875 C 1266.761719 739.21875 1272.460938 737.878906 1278.171875 736.851562 C 1283.210938 735.949219 1288.21875 735.289062 1293.179688 734.890625 C 1298.109375 734.488281 1303.148438 734.320312 1308.25 734.398438 C 1313.300781 734.46875 1318.308594 734.789062 1323.21875 735.359375 C 1328 735.921875 1332.78125 736.71875 1337.480469 737.800781 C 1341.539062 738.730469 1345.53125 739.859375 1349.410156 741.191406 C 1353.199219 742.488281 1356.949219 744.011719 1360.640625 745.761719 C 1364.25 747.46875 1367.78125 749.410156 1371.191406 751.550781 C 1374.488281 753.621094 1377.679688 755.910156 1380.710938 758.398438 C 1385.699219 762.5 1389.851562 766.820312 1393.640625 771.398438 C 1397.351562 775.871094 1400.761719 780.671875 1404.300781 785.78125 C 1405.261719 787.171875 1405.988281 788.699219 1406.46875 790.308594 C 1406.941406 791.910156 1407.160156 793.589844 1407.121094 795.28125 C 1407.03125 798.210938 1406.140625 801.011719 1404.621094 803.398438 L 1404.609375 803.410156 C 1403.089844 805.800781 1400.929688 807.78125 1398.28125 809.089844 C 1395.351562 810.550781 1392.109375 811.03125 1389.011719 810.589844 C 1385.898438 810.160156 1382.910156 808.800781 1380.488281 806.601562 L 1380.011719 806.160156 C 1379.839844 806.011719 1379.691406 805.839844 1379.550781 805.671875 L 1378.78125 804.78125 L 1378.5 804.429688 L 1378.128906 803.890625 C 1375.421875 799.980469 1372.78125 796.179688 1369.890625 792.609375 C 1367.089844 789.148438 1364.058594 785.898438 1360.511719 782.988281 C 1358.519531 781.351562 1356.398438 779.828125 1354.171875 778.441406 C 1351.878906 777 1349.488281 775.699219 1347.019531 774.53125 C 1344.429688 773.308594 1341.75 772.21875 1339.019531 771.289062 L 1339.011719 771.289062 C 1336.140625 770.308594 1333.25 769.488281 1330.371094 768.828125 C 1326.800781 768.011719 1323.140625 767.398438 1319.441406 766.96875 C 1315.5 766.519531 1311.609375 766.269531 1307.800781 766.210938 C 1303.859375 766.160156 1299.828125 766.289062 1295.738281 766.628906 C 1291.648438 766.960938 1287.660156 767.480469 1283.789062 768.171875 C 1279.421875 768.949219 1274.980469 770 1270.550781 771.339844 C 1266.429688 772.589844 1262.410156 774.070312 1258.578125 775.800781 C 1255.191406 777.320312 1251.859375 779.078125 1248.730469 781.089844 C 1245.871094 782.929688 1243.191406 784.960938 1240.78125 787.179688 C 1238.28125 789.519531 1235.980469 792.128906 1233.878906 794.921875 C 1231.738281 797.761719 1229.828125 800.738281 1228.109375 803.761719 C 1226.679688 806.28125 1225.351562 808.851562 1224.148438 811.441406 C 1222.921875 814.058594 1221.769531 816.789062 1220.710938 819.601562 L 1219.199219 823.609375 C 1218.109375 826.519531 1217.011719 829.441406 1214.871094 832.160156 L 1214.828125 832.210938 C 1211.179688 836.789062 1206.628906 838.789062 1201.898438 838.820312 C 1197.480469 838.839844 1193.019531 837.070312 1189.128906 834.058594 C 1188.921875 833.929688 1188.738281 833.78125 1188.570312 833.621094 C 1187.460938 832.738281 1186.738281 832.128906 1186.03125 831.539062 L 1185.71875 831.269531 C 1183.230469 829.199219 1180.691406 827.109375 1178.019531 825.109375 C 1175.410156 823.171875 1172.761719 821.378906 1170.058594 819.910156 C 1168.410156 819.019531 1166.699219 818.230469 1164.929688 817.558594 C 1163.199219 816.910156 1161.410156 816.371094 1159.550781 815.96875 C 1157.460938 815.511719 1155.359375 815.238281 1153.28125 815.128906 C 1151.179688 815.011719 1149.03125 815.050781 1146.851562 815.21875 C 1144.230469 815.421875 1141.550781 815.808594 1138.878906 816.339844 C 1135.890625 816.941406 1132.988281 817.691406 1130.230469 818.539062 C 1127.191406 819.46875 1124.191406 820.550781 1121.261719 821.761719 C 1118.421875 822.929688 1115.558594 824.28125 1112.710938 825.800781 C 1109.949219 827.269531 1107.28125 828.859375 1104.730469 830.578125 C 1102.140625 832.328125 1099.679688 834.199219 1097.371094 836.191406 C 1094.878906 838.339844 1092.519531 840.660156 1090.28125 843.121094 C 1088.058594 845.570312 1085.96875 848.148438 1084.011719 850.851562 C 1081.671875 854.078125 1079.511719 857.429688 1077.558594 860.859375 C 1075.558594 864.378906 1073.761719 867.980469 1072.191406 871.589844 C 1070.75 874.921875 1069.449219 878.421875 1068.359375 882.039062 C 1067.390625 885.269531 1066.621094 888.558594 1066.109375 891.871094 C 1065.609375 895.128906 1065.359375 898.371094 1065.320312 901.558594 C 1065.289062 904.808594 1065.460938 908.109375 1065.800781 911.390625 C 1066.050781 913.859375 1066.410156 916.378906 1066.871094 918.96875 C 1067.308594 921.46875 1067.839844 923.980469 1068.441406 926.5 L 1069.558594 931.238281 L 1069.621094 931.570312 C 1070.890625 937.550781 1070.351562 942.730469 1067.898438 946.871094 C 1065.371094 951.140625 1060.96875 954.109375 1054.621094 955.519531 C 1053.210938 955.839844 1052.230469 956.03125 1051.25 956.210938 L 1050.878906 956.289062 C 1046.339844 957.160156 1041.109375 958.179688 1037.238281 960.078125 C 1036.320312 960.53125 1035.421875 961.089844 1034.539062 961.738281 C 1033.648438 962.410156 1032.828125 963.140625 1032.058594 963.921875 C 1030.949219 965.058594 1029.921875 966.300781 1028.960938 967.589844 C 1027.949219 968.929688 1027.011719 970.339844 1026.109375 971.730469 L 1026.109375 971.738281 C 1024.929688 973.601562 1023.800781 975.5 1022.761719 977.429688 C 1021.710938 979.390625 1020.738281 981.359375 1019.871094 983.351562 C 1018.839844 985.710938 1017.949219 988.078125 1017.191406 990.460938 C 1016.429688 992.828125 1015.78125 995.289062 1015.25 997.808594 C 1014.628906 1000.789062 1014.171875 1003.808594 1013.878906 1006.839844 C 1013.570312 1009.96875 1013.429688 1013.21875 1013.429688 1016.519531 C 1013.429688 1020.011719 1013.578125 1023.398438 1013.890625 1026.660156 C 1014.210938 1030.058594 1014.691406 1033.46875 1015.320312 1036.871094 C 1016 1040.488281 1016.859375 1044.109375 1017.941406 1047.710938 C 1019.019531 1051.28125 1020.289062 1054.75 1021.78125 1058.101562 C 1023.398438 1061.761719 1025.28125 1065.261719 1027.398438 1068.578125 C 1029.511719 1071.890625 1031.890625 1075.058594 1034.511719 1078.058594 C 1037.589844 1081.589844 1041.011719 1084.898438 1044.640625 1087.921875 C 1048.339844 1091 1052.320312 1093.820312 1056.46875 1096.328125 C 1060.429688 1098.710938 1064.589844 1100.820312 1068.890625 1102.570312 C 1072.949219 1104.210938 1077.128906 1105.53125 1081.359375 1106.429688 C 1085.808594 1107.378906 1090.328125 1107.878906 1094.820312 1107.949219 C 1099.390625 1108.019531 1104.011719 1107.640625 1108.601562 1106.828125 C 1113.238281 1106.019531 1117.78125 1104.769531 1122.140625 1103.128906 C 1126.570312 1101.460938 1130.820312 1099.398438 1134.820312 1096.980469 C 1152.121094 1086.480469 1166.988281 1067.941406 1179.980469 1051.75 L 1181.851562 1049.410156 C 1184.589844 1046.011719 1188.480469 1044.019531 1192.519531 1043.589844 C 1196.570312 1043.140625 1200.78125 1044.25 1204.210938 1047 L 1204.230469 1047.011719 C 1207.628906 1049.761719 1209.609375 1053.640625 1210.050781 1057.691406 C 1210.488281 1061.730469 1209.390625 1065.949219 1206.640625 1069.371094 L 1205.96875 1070.210938 C 1196.03125 1082.589844 1185.71875 1095.421875 1173.960938 1106.570312 Z M 1719.710938 771.25 C 1722.128906 772.371094 1724.5 773.601562 1726.800781 774.949219 C 1729.898438 776.75 1732.878906 778.769531 1735.71875 780.980469 C 1739.160156 783.660156 1742.410156 786.628906 1745.449219 789.839844 C 1748.628906 793.199219 1751.550781 796.761719 1754.191406 800.441406 C 1756.859375 804.160156 1759.320312 808.121094 1761.570312 812.261719 C 1763.828125 816.429688 1765.851562 820.761719 1767.601562 825.171875 C 1773.21875 839.289062 1777.351562 853.859375 1779.101562 868.640625 C 1780.871094 883.519531 1780.238281 898.648438 1776.320312 913.761719 C 1773.171875 925.871094 1768.179688 937.011719 1761.878906 947.351562 C 1755.929688 957.121094 1748.820312 966.179688 1741 974.691406 L 1741.300781 977.679688 C 1741.449219 979.410156 1741.578125 981.019531 1741.671875 982.480469 C 1742.03125 988.289062 1742.078125 994.191406 1741.730469 1000.070312 C 1741.421875 1005.480469 1740.75 1010.910156 1739.671875 1016.269531 C 1738.609375 1021.46875 1737.171875 1026.578125 1735.25 1031.449219 C 1733.429688 1036.050781 1731.199219 1040.480469 1728.480469 1044.628906 C 1725.558594 1049.078125 1722.140625 1053.121094 1718.328125 1056.769531 C 1714.351562 1060.570312 1709.949219 1063.929688 1705.261719 1066.851562 C 1702.25 1068.730469 1699.160156 1070.410156 1696 1071.910156 C 1693.308594 1073.199219 1690.558594 1074.359375 1687.769531 1075.421875 C 1686.890625 1078.410156 1685.851562 1081.410156 1684.660156 1084.390625 C 1683.148438 1088.191406 1681.441406 1091.851562 1679.601562 1095.339844 C 1677.390625 1099.511719 1674.929688 1103.570312 1672.261719 1107.480469 C 1669.828125 1111.03125 1667.199219 1114.480469 1664.398438 1117.789062 C 1663.589844 1136.179688 1660.921875 1154.789062 1654.921875 1172.058594 C 1648.710938 1189.941406 1638.941406 1206.351562 1624.011719 1219.589844 C 1608.648438 1233.21875 1590.050781 1241.441406 1570.378906 1246.199219 C 1550.941406 1250.910156 1530.46875 1252.21875 1511.109375 1252.011719 C 1503.808594 1251.929688 1496.570312 1251.480469 1489.429688 1250.691406 C 1483.710938 1250.058594 1477.988281 1249.199219 1472.308594 1248.140625 L 1472.390625 1256.191406 C 1472.429688 1261.03125 1472.460938 1265.878906 1472.480469 1270.75 C 1472.5 1275.601562 1472.511719 1280.460938 1472.5 1285.308594 C 1472.488281 1290.441406 1472.460938 1295.558594 1472.351562 1300.628906 C 1472.230469 1305.878906 1472.03125 1311.039062 1471.691406 1316.050781 C 1471.339844 1321.21875 1470.828125 1326.410156 1470.078125 1331.539062 C 1469.320312 1336.730469 1468.300781 1341.890625 1466.929688 1346.941406 C 1465.488281 1352.261719 1463.621094 1357.539062 1461.238281 1362.628906 C 1459.03125 1367.320312 1456.410156 1371.789062 1453.320312 1375.898438 C 1450.179688 1380.058594 1446.601562 1383.78125 1442.601562 1386.980469 L 1442.351562 1387.171875 C 1438.511719 1390.199219 1434.300781 1392.738281 1429.71875 1394.730469 C 1425.03125 1396.761719 1420.070312 1398.171875 1415.058594 1399.03125 C 1409.75 1399.941406 1404.300781 1400.25 1398.980469 1400.03125 C 1393.660156 1399.808594 1388.191406 1399.050781 1382.890625 1397.671875 C 1377.921875 1396.378906 1373.109375 1394.558594 1368.730469 1392.140625 C 1364.308594 1389.699219 1360.480469 1386.75 1357.109375 1383.339844 C 1353.78125 1379.96875 1350.910156 1376.140625 1348.359375 1371.910156 C 1343.75 1364.238281 1340.460938 1355.828125 1337.28125 1347.691406 L 1335.050781 1342 C 1331.140625 1332.03125 1327.25 1322.210938 1323.328125 1312.761719 C 1319.359375 1303.171875 1315.21875 1293.589844 1310.78125 1283.96875 C 1307.761719 1277.421875 1304.679688 1271.011719 1301.53125 1264.851562 C 1298.359375 1258.671875 1294.980469 1252.488281 1291.328125 1246.328125 C 1287.558594 1239.988281 1283.578125 1233.820312 1279.339844 1227.929688 C 1275.078125 1221.988281 1270.519531 1216.28125 1265.640625 1210.878906 C 1260.550781 1205.25 1255.070312 1199.929688 1249.351562 1194.859375 C 1243.660156 1189.808594 1237.671875 1184.960938 1231.539062 1180.28125 C 1225.058594 1175.320312 1218.550781 1170.628906 1212.050781 1166.078125 C 1205.519531 1161.511719 1198.929688 1157.039062 1192.351562 1152.570312 C 1183.941406 1148.898438 1175.859375 1144.660156 1168 1140.109375 C 1160.710938 1135.890625 1153.609375 1131.410156 1146.578125 1126.890625 C 1141.871094 1129.429688 1136.949219 1131.628906 1131.890625 1133.449219 C 1126.070312 1135.550781 1120.109375 1137.140625 1114.101562 1138.199219 C 1107.601562 1139.339844 1100.960938 1139.871094 1094.28125 1139.761719 C 1087.691406 1139.660156 1081.128906 1138.929688 1074.730469 1137.570312 C 1068.738281 1136.289062 1062.851562 1134.449219 1057.140625 1132.148438 C 1051.191406 1129.75 1045.460938 1126.859375 1040.039062 1123.601562 C 1034.578125 1120.300781 1029.261719 1116.519531 1024.230469 1112.328125 C 1019.308594 1108.21875 1014.710938 1103.761719 1010.550781 1099 C 1006.890625 1094.808594 1003.570312 1090.371094 1000.589844 1085.699219 C 997.597656 1081.019531 994.96875 1076.128906 992.703125 1071.039062 C 991.199219 1067.660156 989.859375 1064.210938 988.6875 1060.71875 C 988.023438 1058.738281 987.40625 1056.75 986.839844 1054.738281 L 985.015625 1055.519531 C 980.507812 1057.390625 975.953125 1058.898438 971.308594 1059.988281 C 966.671875 1061.070312 961.902344 1061.75 956.953125 1061.96875 C 951.925781 1062.199219 946.847656 1061.96875 941.835938 1061.390625 C 936.292969 1060.761719 930.800781 1059.699219 925.511719 1058.371094 C 920.035156 1057 914.558594 1055.28125 909.183594 1053.261719 C 903.851562 1051.261719 898.617188 1048.941406 893.589844 1046.359375 L 893.390625 1046.25 C 888.847656 1043.898438 884.441406 1041.320312 880.230469 1038.5 C 876.042969 1035.691406 872.011719 1032.640625 868.195312 1029.339844 C 864.449219 1026.109375 860.878906 1022.621094 857.5625 1018.878906 C 854.386719 1015.300781 851.441406 1011.488281 848.796875 1007.46875 C 846.394531 1003.828125 844.265625 1000.039062 842.433594 996.109375 C 840.617188 992.21875 839.09375 988.21875 837.886719 984.128906 C 836.679688 980.019531 835.789062 975.828125 835.214844 971.589844 C 834.636719 967.320312 834.378906 962.988281 834.429688 958.640625 L 834.429688 958.621094 C 834.457031 956.171875 834.582031 953.730469 834.800781 951.289062 C 834.945312 949.671875 835.128906 948.078125 835.339844 946.539062 L 835.28125 946.5 C 834.722656 946.179688 833.933594 945.699219 832.902344 945.058594 C 830.496094 943.570312 828.1875 942.058594 826.003906 940.511719 L 825.75 940.320312 C 823.484375 938.710938 821.351562 937.089844 819.382812 935.460938 C 816.925781 933.421875 814.550781 931.238281 812.265625 928.921875 C 809.992188 926.609375 807.855469 924.199219 805.855469 921.671875 L 805.683594 921.441406 C 803.328125 918.449219 801.191406 915.359375 799.253906 912.191406 C 797.234375 908.890625 795.421875 905.511719 793.792969 902.089844 L 793.699219 901.878906 C 791.609375 897.460938 789.761719 892.871094 788.175781 888.160156 C 786.558594 883.359375 785.222656 878.46875 784.183594 873.570312 C 783.148438 868.679688 782.402344 863.761719 781.976562 858.859375 C 781.5625 854.109375 781.445312 849.269531 781.652344 844.390625 C 781.875 839.101562 782.472656 833.859375 783.386719 828.738281 C 784.34375 823.378906 785.664062 818.03125 787.277344 812.800781 C 788.890625 807.570312 790.835938 802.359375 793.101562 797.289062 C 795.285156 792.378906 797.765625 787.628906 800.523438 783.121094 C 804.636719 776.398438 809.179688 770.621094 814.132812 765.269531 C 818.589844 760.449219 823.308594 756.070312 828.308594 751.71875 C 827.921875 748.21875 827.746094 744.671875 827.753906 741.121094 C 827.761719 736.511719 828.0625 731.980469 828.59375 727.578125 C 829.332031 721.488281 830.527344 715.351562 832.109375 709.28125 C 833.730469 703.039062 835.765625 696.890625 838.128906 690.949219 C 840.054688 686.121094 842.203125 681.421875 844.621094 676.941406 C 847.070312 672.398438 849.828125 668 852.945312 663.800781 C 855.871094 659.851562 859.058594 656.160156 862.496094 652.75 C 865.949219 649.320312 869.652344 646.160156 873.601562 643.269531 C 877.03125 640.761719 880.597656 638.46875 884.246094 636.390625 C 888.101562 634.179688 892.140625 632.160156 896.273438 630.308594 C 900.460938 628.429688 904.796875 626.71875 909.226562 625.191406 C 913.714844 623.640625 918.1875 622.300781 922.59375 621.199219 C 925.910156 620.371094 929.238281 619.660156 932.558594 619.070312 C 935.78125 618.5 939.109375 618.03125 942.535156 617.679688 C 944.773438 617.441406 946.992188 617.269531 949.195312 617.140625 C 951.273438 617.019531 953.488281 616.941406 955.796875 616.878906 L 959.996094 616.800781 L 960.300781 616.050781 C 960.742188 614.980469 961.210938 613.898438 961.710938 612.808594 C 964.203125 607.359375 967.175781 602.210938 970.570312 597.398438 C 974.042969 592.488281 977.976562 587.890625 982.3125 583.640625 C 986.679688 579.351562 991.425781 575.449219 996.453125 571.921875 C 1001.691406 568.25 1007.210938 565.011719 1012.890625 562.199219 C 1018.21875 559.550781 1023.699219 557.261719 1029.238281 555.269531 C 1034.808594 553.28125 1040.480469 551.578125 1046.160156 550.128906 C 1052.21875 548.589844 1058.441406 547.308594 1064.769531 546.28125 C 1071.171875 545.25 1077.578125 544.488281 1083.929688 544 C 1088.738281 543.640625 1093.671875 543.441406 1098.699219 543.390625 C 1103.648438 543.351562 1108.539062 543.480469 1113.351562 543.769531 C 1118.140625 544.058594 1122.960938 544.519531 1127.789062 545.160156 C 1132.460938 545.78125 1137.070312 546.570312 1141.558594 547.53125 C 1144.78125 548.21875 1147.960938 549.011719 1151.078125 549.941406 C 1153.210938 550.570312 1155.320312 551.28125 1157.421875 552.070312 C 1160.859375 547.039062 1164.480469 542.21875 1168.570312 537.699219 C 1173.441406 532.328125 1178.910156 527.460938 1185.449219 523.28125 C 1189.828125 520.480469 1194.5 518.121094 1199.328125 516.121094 C 1204.109375 514.148438 1209.050781 512.550781 1214.011719 511.261719 C 1219.761719 509.75 1225.609375 508.628906 1231.488281 507.808594 C 1237.328125 506.988281 1243.238281 506.46875 1249.128906 506.171875 C 1255.421875 505.851562 1261.78125 505.789062 1268.160156 505.96875 C 1274.539062 506.160156 1280.859375 506.601562 1287.058594 507.289062 C 1292.859375 507.929688 1298.671875 508.800781 1304.351562 509.929688 C 1310.03125 511.070312 1315.730469 512.5 1321.378906 514.308594 C 1325.960938 515.769531 1330.480469 517.488281 1334.898438 519.460938 C 1339.351562 521.429688 1343.640625 523.621094 1347.730469 526 C 1351.890625 528.429688 1355.949219 531.089844 1359.789062 533.960938 C 1363.480469 536.71875 1367.039062 539.71875 1370.378906 542.941406 C 1372.78125 545.25 1375 547.699219 1377.058594 550.21875 C 1379.070312 552.679688 1381.019531 555.320312 1382.890625 558.019531 L 1384.660156 560.648438 C 1389.660156 558.089844 1394.878906 555.921875 1400.238281 554.109375 C 1405.988281 552.171875 1411.878906 550.660156 1417.800781 549.53125 C 1423.828125 548.390625 1429.980469 547.640625 1436.148438 547.28125 C 1442.328125 546.910156 1448.511719 546.949219 1454.621094 547.378906 C 1459.71875 547.738281 1464.828125 548.398438 1469.941406 549.328125 C 1475.078125 550.269531 1480.128906 551.488281 1485.058594 552.960938 C 1490.078125 554.460938 1495.011719 556.230469 1499.808594 558.238281 C 1504.609375 560.261719 1509.339844 562.539062 1513.949219 565.078125 C 1517.800781 567.199219 1521.570312 569.511719 1525.238281 572.050781 C 1528.871094 574.558594 1532.390625 577.28125 1535.738281 580.25 C 1539.019531 583.140625 1542.089844 586.21875 1544.960938 589.480469 C 1547.839844 592.738281 1550.519531 596.171875 1553 599.75 C 1557.351562 606.039062 1561.171875 612.820312 1564.648438 619.789062 C 1567.78125 626.050781 1570.550781 632.238281 1573.191406 638.320312 L 1575 638.328125 C 1576.570312 638.339844 1578.078125 638.378906 1579.511719 638.449219 C 1584.859375 638.671875 1590.128906 639.191406 1595.28125 639.96875 C 1600.550781 640.769531 1605.851562 641.871094 1611.140625 643.238281 C 1616.488281 644.628906 1621.71875 646.269531 1626.808594 648.140625 C 1631.96875 650.03125 1637.109375 652.199219 1642.199219 654.640625 C 1647.199219 657.019531 1652.140625 659.671875 1656.96875 662.539062 L 1656.980469 662.53125 C 1661.679688 665.328125 1666.320312 668.378906 1670.851562 671.679688 C 1675.238281 674.890625 1679.488281 678.28125 1683.449219 681.851562 C 1687.191406 685.199219 1690.769531 688.789062 1694.128906 692.609375 C 1697.140625 696.039062 1699.949219 699.660156 1702.519531 703.460938 C 1705.039062 707.179688 1707.328125 711.070312 1709.351562 715.101562 C 1711.398438 719.179688 1713.148438 723.328125 1714.589844 727.511719 C 1716.039062 731.710938 1717.199219 736.03125 1718.070312 740.421875 C 1718.789062 744.089844 1719.289062 747.75 1719.609375 751.429688 C 1719.910156 754.988281 1720.03125 758.660156 1720.011719 762.441406 C 1719.988281 764.460938 1719.941406 766.390625 1719.859375 768.261719 Z M 1540.339844 642.730469 C 1538.648438 639.011719 1536.898438 635.320312 1535.058594 631.769531 C 1532.539062 626.878906 1529.808594 622.171875 1526.820312 617.851562 C 1525.089844 615.351562 1523.199219 612.929688 1521.148438 610.601562 C 1519.089844 608.261719 1516.929688 606.078125 1514.671875 604.078125 C 1512.261719 601.960938 1509.691406 599.980469 1506.988281 598.121094 C 1504.289062 596.269531 1501.488281 594.558594 1498.601562 592.980469 C 1495.03125 591.011719 1491.320312 589.21875 1487.488281 587.609375 C 1483.699219 586.019531 1479.839844 584.628906 1475.949219 583.46875 C 1472.039062 582.308594 1468.128906 581.359375 1464.210938 580.640625 C 1460.339844 579.929688 1456.378906 579.421875 1452.371094 579.140625 C 1447.589844 578.800781 1442.769531 578.78125 1437.980469 579.050781 C 1433.179688 579.328125 1428.398438 579.921875 1423.710938 580.808594 C 1419.261719 581.648438 1414.851562 582.78125 1410.558594 584.21875 C 1406.53125 585.570312 1402.601562 587.199219 1398.839844 589.148438 C 1397.078125 590.058594 1395.320312 591.058594 1393.589844 592.128906 C 1391.820312 593.238281 1390.121094 594.378906 1388.511719 595.558594 L 1388.191406 595.789062 C 1386.589844 596.96875 1385.101562 598.148438 1383.71875 599.308594 L 1383.71875 599.320312 C 1382.160156 600.628906 1380.671875 601.96875 1379.230469 603.339844 C 1376.078125 606.351562 1373.109375 609.589844 1370.359375 612.988281 C 1367.609375 616.410156 1365.070312 620.011719 1362.800781 623.71875 C 1361.261719 626.25 1359.890625 628.738281 1358.679688 631.210938 L 1358.53125 631.511719 L 1360.671875 631.019531 C 1365.621094 629.929688 1370.699219 629.101562 1375.851562 628.550781 C 1380.808594 628.019531 1385.839844 627.769531 1390.871094 627.820312 C 1395.589844 627.859375 1400.238281 628.160156 1404.769531 628.71875 C 1409.320312 629.289062 1413.898438 630.121094 1418.460938 631.230469 C 1422.929688 632.308594 1427.378906 633.660156 1431.730469 635.28125 C 1435.960938 636.851562 1440.078125 638.679688 1444.011719 640.738281 C 1447.289062 642.46875 1450.488281 644.398438 1453.578125 646.53125 C 1456.589844 648.609375 1459.449219 650.859375 1462.128906 653.269531 C 1464.769531 655.648438 1467.300781 658.261719 1469.679688 661.078125 C 1472 663.839844 1474.089844 666.710938 1475.910156 669.660156 C 1477.128906 671.660156 1478.261719 673.75 1479.328125 675.910156 C 1480.328125 677.910156 1481.289062 680.019531 1482.25 682.179688 L 1483.191406 684.300781 L 1483.949219 684.339844 C 1488.660156 678.441406 1493.5 672.699219 1498.78125 667.429688 C 1504.660156 661.570312 1511.101562 656.261719 1518.539062 651.910156 C 1522.578125 649.550781 1526.769531 647.539062 1531.050781 645.859375 C 1534.109375 644.660156 1537.210938 643.621094 1540.339844 642.730469 Z M 1361.929688 1093.070312 L 1361.460938 1094.058594 C 1360.410156 1096.238281 1359.480469 1098.128906 1358.710938 1099.628906 C 1356.371094 1104.230469 1353.800781 1108.851562 1350.921875 1113.449219 C 1348.039062 1118.050781 1344.960938 1122.429688 1341.628906 1126.5 L 1341.449219 1126.710938 C 1340.371094 1128.019531 1339.230469 1129.339844 1338.03125 1130.671875 L 1336.789062 1132.019531 L 1338.960938 1134.441406 C 1340.351562 1135.96875 1341.878906 1137.640625 1343.601562 1139.460938 C 1346.960938 1143.011719 1350.398438 1146.460938 1353.929688 1149.820312 C 1357.460938 1153.171875 1361.089844 1156.429688 1364.800781 1159.609375 C 1369.980469 1164.019531 1375.289062 1168.261719 1380.730469 1172.300781 C 1386.128906 1176.308594 1391.699219 1180.171875 1397.398438 1183.839844 C 1402.691406 1187.238281 1408.121094 1190.488281 1413.648438 1193.53125 C 1419.210938 1196.578125 1424.851562 1199.398438 1430.53125 1201.941406 C 1437.03125 1204.839844 1443.648438 1207.421875 1450.359375 1209.648438 C 1457.03125 1211.871094 1463.859375 1213.769531 1470.78125 1215.328125 C 1477.488281 1216.839844 1484.328125 1218.03125 1491.261719 1218.851562 C 1498.03125 1219.660156 1504.769531 1220.121094 1511.429688 1220.191406 C 1526.941406 1220.359375 1544.011719 1219.488281 1560.179688 1215.910156 C 1576.089844 1212.390625 1591.140625 1206.21875 1602.910156 1195.78125 C 1611.109375 1188.511719 1617.140625 1179.648438 1621.539062 1169.921875 C 1624.828125 1162.648438 1627.21875 1154.898438 1628.929688 1146.96875 C 1625.46875 1148.980469 1621.921875 1150.859375 1618.328125 1152.570312 C 1613.230469 1154.988281 1607.96875 1157.121094 1602.601562 1158.871094 C 1597.800781 1160.429688 1592.859375 1161.671875 1587.851562 1162.589844 C 1582.871094 1163.511719 1577.851562 1164.089844 1572.800781 1164.328125 C 1567.789062 1164.558594 1562.710938 1164.460938 1557.640625 1164 C 1552.640625 1163.550781 1547.730469 1162.761719 1542.980469 1161.628906 L 1542.640625 1161.53125 C 1538.839844 1160.609375 1535.160156 1159.46875 1531.570312 1158.140625 C 1527.839844 1156.75 1524.21875 1155.148438 1520.679688 1153.371094 C 1517.648438 1151.839844 1514.738281 1150.21875 1511.890625 1148.539062 C 1509.050781 1146.859375 1506.261719 1145.128906 1503.480469 1143.390625 C 1499.761719 1141.070312 1497.328125 1137.441406 1496.410156 1133.460938 C 1495.5 1129.5 1496.089844 1125.179688 1498.398438 1121.46875 L 1498.410156 1121.460938 C 1500.730469 1117.738281 1504.359375 1115.308594 1508.328125 1114.390625 C 1512.300781 1113.46875 1516.621094 1114.058594 1520.328125 1116.378906 L 1520.429688 1116.441406 C 1525.238281 1119.449219 1530.058594 1122.460938 1535 1124.949219 C 1537.5 1126.210938 1540.011719 1127.320312 1542.53125 1128.269531 C 1545.019531 1129.199219 1547.621094 1129.988281 1550.359375 1130.648438 C 1553.78125 1131.460938 1557.210938 1132.019531 1560.578125 1132.320312 C 1564.121094 1132.640625 1567.71875 1132.699219 1571.300781 1132.53125 C 1574.941406 1132.359375 1578.558594 1131.941406 1582.121094 1131.289062 C 1585.691406 1130.628906 1589.25 1129.730469 1592.769531 1128.589844 C 1596.871094 1127.25 1600.898438 1125.621094 1604.78125 1123.769531 L 1604.78125 1123.75 C 1608.988281 1121.738281 1613.039062 1119.480469 1616.859375 1117.070312 C 1620.648438 1114.679688 1624.398438 1112.03125 1627.949219 1109.160156 C 1631.179688 1106.53125 1634.25 1103.710938 1637.039062 1100.710938 C 1639.871094 1097.660156 1642.519531 1094.398438 1644.949219 1090.988281 C 1646.691406 1088.550781 1648.308594 1086.03125 1649.800781 1083.449219 L 1648.351562 1083.550781 C 1645.460938 1083.738281 1642.460938 1083.851562 1639.378906 1083.890625 C 1633.359375 1083.96875 1627.421875 1083.75 1621.589844 1083.25 C 1615.660156 1082.75 1609.648438 1081.941406 1603.640625 1080.851562 C 1593.890625 1079.078125 1584.441406 1076.601562 1575.148438 1073.71875 C 1566.929688 1071.160156 1558.710938 1068.230469 1550.488281 1065.191406 C 1549.511719 1066.539062 1548.519531 1067.890625 1547.5 1069.230469 C 1545.769531 1071.5 1544.089844 1073.621094 1542.46875 1075.558594 C 1538.160156 1080.71875 1533.53125 1085.628906 1528.570312 1090.179688 C 1523.828125 1094.53125 1518.800781 1098.550781 1513.480469 1102.140625 C 1508.261719 1105.671875 1502.78125 1108.789062 1497.058594 1111.429688 C 1491.460938 1114.011719 1485.648438 1116.128906 1479.671875 1117.738281 C 1473.878906 1119.300781 1467.929688 1120.378906 1461.910156 1121.019531 C 1455.691406 1121.671875 1449.398438 1121.851562 1443.148438 1121.609375 C 1436.71875 1121.359375 1430.328125 1120.671875 1424.070312 1119.578125 C 1417.648438 1118.46875 1411.28125 1116.929688 1405.039062 1115 C 1398.851562 1113.101562 1392.738281 1110.789062 1386.800781 1108.058594 C 1381.109375 1105.441406 1375.589844 1102.449219 1370.359375 1099.058594 C 1368.101562 1097.589844 1365.949219 1096.109375 1363.941406 1094.609375 Z M 1263.730469 1165.25 C 1266.871094 1167.878906 1269.96875 1170.570312 1273.011719 1173.339844 C 1278.621094 1178.429688 1284.050781 1183.808594 1289.230469 1189.539062 C 1294.871094 1195.769531 1300.109375 1202.328125 1305 1209.109375 C 1309.921875 1215.941406 1314.46875 1222.960938 1318.710938 1230.089844 C 1322.539062 1236.550781 1326.199219 1243.261719 1329.730469 1250.128906 C 1333.269531 1257.019531 1336.558594 1263.851562 1339.691406 1270.628906 C 1344.238281 1280.488281 1348.519531 1290.398438 1352.648438 1300.359375 C 1356.769531 1310.328125 1360.75 1320.339844 1364.691406 1330.398438 L 1367.390625 1337.289062 C 1369.800781 1343.460938 1372.390625 1350.101562 1375.648438 1355.53125 C 1376.789062 1357.421875 1378 1359.128906 1379.410156 1360.621094 C 1380.738281 1362.03125 1382.261719 1363.25 1384.089844 1364.261719 C 1386.230469 1365.441406 1388.699219 1366.328125 1391.261719 1366.96875 C 1394.269531 1367.710938 1397.378906 1368.109375 1400.269531 1368.230469 C 1403.230469 1368.351562 1406.339844 1368.199219 1409.378906 1367.710938 C 1412.089844 1367.269531 1414.710938 1366.558594 1417.078125 1365.53125 C 1419.25 1364.589844 1421.210938 1363.371094 1423 1361.898438 C 1424.789062 1360.429688 1426.421875 1358.691406 1427.898438 1356.730469 C 1429.730469 1354.300781 1431.28125 1351.601562 1432.578125 1348.769531 C 1434.078125 1345.519531 1435.261719 1342.078125 1436.191406 1338.648438 C 1437.269531 1334.671875 1438.058594 1330.570312 1438.648438 1326.449219 C 1439.25 1322.269531 1439.648438 1318.050781 1439.929688 1313.890625 C 1440.261719 1309.03125 1440.449219 1304.289062 1440.550781 1299.640625 C 1440.648438 1294.820312 1440.679688 1290.03125 1440.679688 1285.269531 C 1440.699219 1275.679688 1440.648438 1266.070312 1440.570312 1256.460938 L 1440.390625 1239.871094 C 1436.859375 1238.699219 1433.449219 1237.480469 1430.171875 1236.230469 C 1426.019531 1234.640625 1421.808594 1232.898438 1417.550781 1230.988281 C 1411.078125 1228.101562 1404.710938 1224.921875 1398.480469 1221.5 L 1398.460938 1221.488281 C 1392.238281 1218.101562 1386.148438 1214.449219 1380.191406 1210.621094 C 1373.949219 1206.601562 1367.789062 1202.339844 1361.761719 1197.851562 C 1355.699219 1193.351562 1349.820312 1188.660156 1344.140625 1183.808594 C 1339.980469 1180.269531 1335.941406 1176.621094 1331.988281 1172.878906 C 1328.058594 1169.140625 1324.210938 1165.28125 1320.449219 1161.300781 C 1318.519531 1159.25 1316.679688 1157.261719 1314.929688 1155.308594 L 1311.671875 1151.640625 C 1308.019531 1153.671875 1304.28125 1155.449219 1300.46875 1157 C 1295.558594 1159 1290.480469 1160.628906 1285.261719 1161.921875 C 1280.109375 1163.179688 1274.859375 1164.109375 1269.601562 1164.710938 C 1267.648438 1164.929688 1265.691406 1165.109375 1263.730469 1165.25 Z M 699.460938 940.078125 L 700.058594 940.988281 C 701.320312 942.929688 702.8125 945.160156 704.453125 947.589844 C 706.320312 950.351562 707.78125 952.480469 709.039062 954.300781 C 710.277344 956.089844 711.558594 957.929688 712.964844 959.910156 C 714.328125 961.839844 715.644531 963.660156 716.863281 965.28125 L 718.289062 967.121094 C 719.640625 968.878906 720.898438 970.550781 721.96875 972.371094 C 723.125 974.328125 724.070312 976.429688 724.6875 978.890625 C 726.046875 984.289062 725.28125 989.261719 723.347656 993.851562 C 721.527344 998.160156 718.695312 1002.019531 715.683594 1005.53125 C 709.097656 1013.199219 702.695312 1021.160156 696.445312 1029.21875 C 690.40625 1037 684.144531 1045.359375 677.941406 1053.671875 C 669.105469 1065.519531 660.515625 1077.300781 652.195312 1088.96875 C 643.675781 1100.929688 635.398438 1112.820312 627.375 1124.628906 L 621.933594 1132.691406 C 615.757812 1141.878906 609.703125 1151.070312 603.855469 1160.210938 C 597.976562 1169.398438 592.1875 1178.71875 586.535156 1188.199219 C 582.074219 1195.679688 577.621094 1203.339844 573.421875 1211.058594 C 569.261719 1218.71875 565.304688 1226.550781 561.777344 1234.5 C 560.003906 1238.5 557.796875 1243.859375 556.574219 1249.191406 C 555.453125 1254.101562 555.148438 1258.980469 556.855469 1262.558594 C 558.703125 1266.429688 563.175781 1269.769531 568.210938 1272.511719 L 568.214844 1272.488281 C 573.6875 1275.460938 579.699219 1277.660156 584.097656 1279.140625 C 588.734375 1280.710938 593.621094 1282.039062 598.59375 1283.210938 C 603.71875 1284.410156 608.703125 1285.398438 613.515625 1286.269531 C 621.09375 1287.640625 628.761719 1288.789062 636.480469 1289.800781 C 644.171875 1290.800781 651.898438 1291.660156 659.628906 1292.429688 L 659.640625 1292.429688 C 660.644531 1292.53125 661.65625 1292.589844 662.664062 1292.628906 C 663.773438 1292.679688 664.789062 1292.699219 665.773438 1292.710938 L 665.773438 1292.699219 L 666.171875 1292.71875 C 668.578125 1292.75 670.996094 1292.789062 673.414062 1293.128906 C 680.738281 1294.160156 685.90625 1297.480469 689.117188 1302.300781 C 692.5 1307.378906 693.539062 1313.988281 692.523438 1321.230469 C 692.347656 1322.5 692.09375 1323.789062 691.78125 1325.078125 C 691.472656 1326.351562 691.085938 1327.640625 690.640625 1328.929688 C 690.128906 1330.398438 689.582031 1331.78125 689.007812 1333.050781 C 688.414062 1334.371094 687.761719 1335.671875 687.074219 1336.941406 L 686.789062 1337.449219 C 682.511719 1345.210938 676.777344 1352.671875 671.4375 1359.628906 L 669.246094 1362.488281 C 667.820312 1364.359375 666.382812 1366.230469 665.179688 1367.859375 C 664.378906 1368.941406 663.53125 1370.089844 662.652344 1371.378906 C 661.851562 1372.550781 661.113281 1373.71875 660.546875 1374.800781 C 660.300781 1375.269531 660.097656 1375.738281 659.917969 1376.230469 C 659.757812 1376.671875 659.601562 1377.210938 659.4375 1377.859375 L 659.398438 1378 C 659.21875 1378.730469 659.054688 1379.480469 658.921875 1380.238281 C 658.78125 1381.039062 658.675781 1381.820312 658.617188 1382.578125 C 658.566406 1383.261719 658.542969 1383.921875 658.5625 1384.5 C 658.582031 1385.050781 658.644531 1385.609375 658.761719 1386.160156 C 659.273438 1388.578125 660.941406 1391.480469 662.328125 1393.890625 C 662.535156 1394.171875 662.761719 1394.628906 662.941406 1394.949219 C 663.511719 1395.429688 664.300781 1396 664.988281 1396.5 L 665.796875 1397.101562 C 668.335938 1398.988281 670.164062 1400.328125 671.992188 1401.667969 L 675.199219 1404.011719 C 680.1875 1407.660156 685.199219 1411.328125 689.964844 1415.0625 C 691.378906 1416.175781 692.914062 1417.390625 694.570312 1418.871094 C 696.191406 1420.324219 697.738281 1421.890625 699.011719 1423.582031 C 701.71875 1427.179688 703.089844 1431.320312 703 1435.4375 C 702.910156 1439.496094 701.414062 1443.488281 698.386719 1446.871094 C 694.753906 1450.933594 690.046875 1452.789062 685.527344 1454.570312 L 681.484375 1456.175781 C 680.199219 1456.703125 678.929688 1457.25 677.703125 1457.8125 C 676.546875 1458.34375 675.347656 1458.933594 674.109375 1459.605469 C 673.289062 1460.046875 672.40625 1460.546875 671.628906 1461.054688 C 670.902344 1461.527344 670.214844 1462.035156 669.6875 1462.535156 C 669.566406 1462.65625 669.453125 1462.777344 669.367188 1462.894531 C 669.308594 1462.972656 669.328125 1462.980469 669.320312 1463.082031 C 669.308594 1463.253906 669.3125 1463.410156 669.324219 1463.542969 C 669.367188 1463.980469 669.464844 1464.441406 669.589844 1464.90625 C 669.730469 1465.421875 669.914062 1465.945312 670.113281 1466.445312 C 670.382812 1467.117188 670.726562 1467.835938 671.128906 1468.582031 C 671.535156 1469.332031 671.972656 1470.046875 672.425781 1470.699219 C 672.8125 1471.257812 673.246094 1471.820312 673.71875 1472.378906 C 674.1875 1472.9375 674.679688 1473.464844 675.179688 1473.953125 C 675.664062 1474.429688 676.210938 1474.917969 676.789062 1475.402344 C 677.375 1475.894531 677.960938 1476.351562 678.539062 1476.777344 C 679.464844 1477.460938 680.300781 1478.035156 681.132812 1478.609375 L 681.503906 1478.875 C 683.199219 1480.042969 684.773438 1481.15625 686.144531 1482.203125 C 687.710938 1483.394531 689.28125 1484.683594 690.890625 1486.136719 C 692.769531 1487.835938 694.492188 1489.605469 696.105469 1491.496094 C 697.707031 1493.359375 699.183594 1495.351562 700.589844 1497.503906 C 702.679688 1500.707031 704.515625 1504.097656 706.152344 1507.558594 C 707.773438 1510.984375 709.214844 1514.492188 710.523438 1517.960938 C 712.558594 1523.351562 714.375 1528.800781 716.019531 1534.230469 C 717.671875 1539.703125 719.179688 1545.230469 720.570312 1550.699219 C 721.929688 1556.039062 723.230469 1561.59375 724.429688 1567.378906 C 725.601562 1573.054688 726.621094 1578.710938 727.414062 1584.28125 C 728.140625 1589.351562 728.664062 1594.414062 728.984375 1599.5 C 729.300781 1604.519531 729.410156 1609.613281 729.3125 1614.8125 C 729.214844 1619.785156 728.945312 1624.585938 728.582031 1629.28125 C 728.222656 1633.882812 727.746094 1638.714844 727.242188 1643.601562 L 726.566406 1650.085938 C 726.015625 1655.402344 725.464844 1660.722656 725.007812 1665.53125 L 724.933594 1666.304688 C 723.863281 1677.574219 722.648438 1690.390625 723.449219 1701.492188 C 723.570312 1703.125 723.765625 1705.089844 724.160156 1706.9375 C 724.507812 1708.546875 725 1710.054688 725.710938 1711.054688 C 726.308594 1711.894531 727.320312 1712.671875 728.464844 1713.363281 C 729.820312 1714.183594 731.320312 1714.859375 732.636719 1715.410156 L 732.648438 1715.414062 C 736.035156 1716.828125 739.625 1717.988281 743.25 1718.953125 C 747.023438 1719.953125 750.796875 1720.746094 754.40625 1721.394531 C 759.007812 1722.222656 763.6875 1722.859375 768.414062 1723.335938 C 773.410156 1723.839844 778.410156 1724.15625 783.363281 1724.308594 C 789.601562 1724.5 795.878906 1724.445312 802.152344 1724.234375 C 808.292969 1724.023438 814.628906 1723.648438 821.011719 1723.199219 C 836.027344 1722.140625 850.699219 1720.726562 865.34375 1719.3125 L 892.566406 1716.703125 C 899.035156 1716.089844 905.8125 1715.460938 913.132812 1714.800781 C 921.078125 1714.085938 928.347656 1713.445312 934.074219 1712.976562 C 940.898438 1712.414062 947.875 1711.882812 955.050781 1711.394531 C 960.699219 1711.007812 966.449219 1710.640625 972.460938 1710.347656 C 978.234375 1710.070312 984.078125 1709.878906 989.984375 1709.84375 C 995.019531 1709.8125 1000.808594 1709.867188 1006.519531 1710.441406 C 1012.441406 1711.035156 1018.308594 1712.1875 1023.308594 1714.359375 C 1027.75 1716.285156 1031.230469 1718.789062 1034.019531 1721.929688 C 1036.78125 1725.027344 1038.828125 1728.71875 1040.449219 1733.0625 C 1041.820312 1736.753906 1042.789062 1740.542969 1043.5 1744.363281 C 1044.199219 1748.09375 1044.648438 1751.875 1045.011719 1755.636719 C 1046.398438 1770.003906 1046.660156 1784.84375 1046.910156 1799.246094 L 1046.929688 1800.085938 C 1047.800781 1849.050781 1047.621094 1898.210938 1047.449219 1947.265625 L 1047.390625 1964.410156 L 1652.390625 1964.410156 C 1640.660156 1907.378906 1628.460938 1848.875 1616.261719 1790.378906 L 1604.621094 1734.574219 C 1591.269531 1670.550781 1577.910156 1606.523438 1564.5 1541.089844 C 1563.71875 1537.285156 1564.359375 1533.460938 1566.089844 1530.238281 C 1567.828125 1527.007812 1570.671875 1524.359375 1574.269531 1522.917969 L 1575.121094 1522.601562 C 1579.488281 1521.113281 1583.828125 1519.636719 1588.230469 1518.003906 C 1592.519531 1516.417969 1596.75 1514.726562 1600.890625 1512.816406 C 1606.191406 1510.378906 1611.308594 1507.621094 1616.289062 1504.605469 C 1621.300781 1501.574219 1626.128906 1498.300781 1630.851562 1494.824219 C 1638.121094 1489.46875 1645.078125 1483.714844 1651.738281 1477.691406 C 1658.410156 1471.667969 1664.878906 1465.289062 1671.128906 1458.710938 C 1680.289062 1449.082031 1689.011719 1438.984375 1697.351562 1428.589844 C 1705.691406 1418.203125 1713.671875 1407.472656 1721.351562 1396.570312 C 1759 1343.058594 1788.738281 1284.800781 1809.558594 1223.539062 C 1830.121094 1163.089844 1842 1099.730469 1844.238281 1035.171875 C 1845.929688 986.71875 1842.089844 938.019531 1832.660156 890.429688 C 1823.410156 843.800781 1808.800781 798.269531 1788.730469 755.101562 C 1768.480469 711.53125 1742.96875 670.96875 1712.648438 634.421875 C 1682.800781 598.441406 1648.289062 566.339844 1609.519531 539.058594 C 1563.261719 506.511719 1513.148438 482.261719 1460.589844 465.480469 C 1405.109375 447.769531 1346.878906 438.359375 1287.558594 436.300781 C 1269.128906 435.660156 1250.660156 435.609375 1232.21875 436.171875 C 1213.929688 436.730469 1195.648438 437.878906 1177.429688 439.648438 C 1159.621094 441.371094 1141.78125 443.691406 1124 446.648438 C 1106.699219 449.53125 1089.550781 453 1072.609375 457.101562 C 1043.300781 464.179688 1013.488281 472.570312 984.378906 483 C 955.351562 493.390625 927.140625 505.761719 901.007812 520.808594 C 880.667969 532.53125 861.90625 545.730469 844.789062 560.828125 C 827.722656 575.878906 812.335938 592.789062 798.710938 611.921875 C 784.976562 631.21875 773.628906 651.890625 764.039062 673.390625 C 754.429688 694.941406 746.574219 717.339844 739.855469 740.050781 C 731.453125 768.441406 724.628906 797.53125 718.71875 826.800781 C 712.820312 856.019531 707.792969 885.640625 703.015625 914.960938 L 702.59375 917.53125 C 701.800781 922.378906 701.003906 927.238281 700.304688 932.179688 L 700.230469 932.699219 C 699.878906 935.171875 699.496094 937.851562 699.460938 940.078125 "/>
</svg>
